<mxfile host="Electron" modified="2025-05-20T03:32:55.230Z" agent="Mozilla/5.0 (Macintosh; Intel Mac OS X 10_15_7) AppleWebKit/537.36 (KHTML, like Gecko) draw.io/24.5.3 Chrome/124.0.6367.207 Electron/30.0.6 Safari/537.36" etag="ujyqATyaEZSv9_tooFKY" version="24.5.3" type="device">
  <diagram name="Page-1" id="eWftpw6a3fO9nzeyyDMk">
    <mxGraphModel dx="954" dy="674" grid="1" gridSize="10" guides="1" tooltips="1" connect="1" arrows="1" fold="1" page="1" pageScale="1" pageWidth="1920" pageHeight="1200" math="0" shadow="0">
      <root>
        <mxCell id="0" />
        <mxCell id="1" parent="0" />
        <mxCell id="c1IH__bVCFyz_OlSx8WP-38" value="&lt;font style=&quot;font-size: 14px;&quot;&gt;&lt;b&gt;AWS Cloud&lt;/b&gt;&lt;/font&gt;" style="points=[[0,0],[0.25,0],[0.5,0],[0.75,0],[1,0],[1,0.25],[1,0.5],[1,0.75],[1,1],[0.75,1],[0.5,1],[0.25,1],[0,1],[0,0.75],[0,0.5],[0,0.25]];outlineConnect=0;gradientColor=none;html=1;whiteSpace=wrap;fontSize=12;fontStyle=0;container=1;pointerEvents=0;collapsible=0;recursiveResize=0;shape=mxgraph.aws4.group;grIcon=mxgraph.aws4.group_aws_cloud_alt;strokeColor=#232F3E;fillColor=none;verticalAlign=top;align=left;spacingLeft=30;fontColor=#232F3E;dashed=0;" parent="1" vertex="1">
          <mxGeometry x="430" y="40" width="460" height="440" as="geometry" />
        </mxCell>
        <mxCell id="c1IH__bVCFyz_OlSx8WP-40" style="edgeStyle=orthogonalEdgeStyle;rounded=0;orthogonalLoop=1;jettySize=auto;html=1;" parent="c1IH__bVCFyz_OlSx8WP-38" source="c1IH__bVCFyz_OlSx8WP-42" target="c1IH__bVCFyz_OlSx8WP-45" edge="1">
          <mxGeometry relative="1" as="geometry">
            <Array as="points">
              <mxPoint x="130" y="200" />
              <mxPoint x="130" y="282" />
            </Array>
          </mxGeometry>
        </mxCell>
        <mxCell id="c1IH__bVCFyz_OlSx8WP-41" style="edgeStyle=orthogonalEdgeStyle;rounded=0;orthogonalLoop=1;jettySize=auto;html=1;exitX=1;exitY=0.5;exitDx=0;exitDy=0;exitPerimeter=0;" parent="c1IH__bVCFyz_OlSx8WP-38" source="c1IH__bVCFyz_OlSx8WP-42" target="c1IH__bVCFyz_OlSx8WP-46" edge="1">
          <mxGeometry relative="1" as="geometry">
            <Array as="points">
              <mxPoint x="130" y="200" />
              <mxPoint x="130" y="376" />
            </Array>
            <mxPoint x="90" y="208" as="sourcePoint" />
          </mxGeometry>
        </mxCell>
        <mxCell id="AcuNDtau0FOJBF-5IhUa-2" style="edgeStyle=orthogonalEdgeStyle;rounded=0;orthogonalLoop=1;jettySize=auto;html=1;" parent="c1IH__bVCFyz_OlSx8WP-38" source="c1IH__bVCFyz_OlSx8WP-42" target="AcuNDtau0FOJBF-5IhUa-1" edge="1">
          <mxGeometry relative="1" as="geometry" />
        </mxCell>
        <mxCell id="c1IH__bVCFyz_OlSx8WP-42" value="AWS IoT Core" style="sketch=0;points=[[0,0,0],[0.25,0,0],[0.5,0,0],[0.75,0,0],[1,0,0],[0,1,0],[0.25,1,0],[0.5,1,0],[0.75,1,0],[1,1,0],[0,0.25,0],[0,0.5,0],[0,0.75,0],[1,0.25,0],[1,0.5,0],[1,0.75,0]];outlineConnect=0;fontColor=#232F3E;fillColor=#7AA116;strokeColor=#ffffff;dashed=0;verticalLabelPosition=bottom;verticalAlign=top;align=center;html=1;fontSize=12;fontStyle=0;aspect=fixed;shape=mxgraph.aws4.resourceIcon;resIcon=mxgraph.aws4.iot_core;" parent="c1IH__bVCFyz_OlSx8WP-38" vertex="1">
          <mxGeometry x="42.67" y="178" width="44" height="44" as="geometry" />
        </mxCell>
        <mxCell id="c1IH__bVCFyz_OlSx8WP-43" value="&lt;font color=&quot;#000000&quot;&gt;&lt;span style=&quot;text-wrap: wrap;&quot;&gt;{topic_prefix}/{self.device_id}/staus&lt;/span&gt;&lt;/font&gt;" style="sketch=0;outlineConnect=0;fontColor=#232F3E;gradientColor=none;fillColor=#7AA116;strokeColor=none;dashed=0;verticalLabelPosition=bottom;verticalAlign=top;align=center;html=1;fontSize=12;fontStyle=0;aspect=fixed;pointerEvents=1;shape=mxgraph.aws4.topic_2;" parent="c1IH__bVCFyz_OlSx8WP-38" vertex="1">
          <mxGeometry x="289.34" y="168" width="35.33" height="52" as="geometry" />
        </mxCell>
        <mxCell id="c1IH__bVCFyz_OlSx8WP-44" style="edgeStyle=orthogonalEdgeStyle;rounded=0;orthogonalLoop=1;jettySize=auto;html=1;" parent="c1IH__bVCFyz_OlSx8WP-38" edge="1">
          <mxGeometry relative="1" as="geometry">
            <mxPoint x="85.67000000000007" y="199.5" as="sourcePoint" />
            <mxPoint x="289.3399999999999" y="199.5" as="targetPoint" />
          </mxGeometry>
        </mxCell>
        <mxCell id="c1IH__bVCFyz_OlSx8WP-45" value="&lt;font color=&quot;#000000&quot;&gt;&lt;span style=&quot;text-wrap: wrap;&quot;&gt;{topic_prefix}/{self.device_id}/responses&lt;/span&gt;&lt;/font&gt;" style="sketch=0;outlineConnect=0;fontColor=#232F3E;gradientColor=none;fillColor=#7AA116;strokeColor=none;dashed=0;verticalLabelPosition=bottom;verticalAlign=top;align=center;html=1;fontSize=12;fontStyle=0;aspect=fixed;pointerEvents=1;shape=mxgraph.aws4.topic_2;" parent="c1IH__bVCFyz_OlSx8WP-38" vertex="1">
          <mxGeometry x="289.3400000000001" y="256" width="35.33" height="52" as="geometry" />
        </mxCell>
        <mxCell id="c1IH__bVCFyz_OlSx8WP-46" value="&lt;span style=&quot;color: rgb(0, 0, 0); text-wrap: wrap;&quot;&gt;{topic_prefix}/{self.device_id}/commands&lt;/span&gt;" style="sketch=0;outlineConnect=0;fontColor=#232F3E;gradientColor=none;fillColor=#7AA116;strokeColor=none;dashed=0;verticalLabelPosition=bottom;verticalAlign=top;align=center;html=1;fontSize=12;fontStyle=0;aspect=fixed;pointerEvents=1;shape=mxgraph.aws4.topic_2;" parent="c1IH__bVCFyz_OlSx8WP-38" vertex="1">
          <mxGeometry x="289.3400000000001" y="346" width="35.33" height="52" as="geometry" />
        </mxCell>
        <mxCell id="c1IH__bVCFyz_OlSx8WP-65" value="&lt;span style=&quot;font-size: 14px;&quot;&gt;Model&lt;/span&gt;" style="sketch=0;points=[[0,0,0],[0.25,0,0],[0.5,0,0],[0.75,0,0],[1,0,0],[0,1,0],[0.25,1,0],[0.5,1,0],[0.75,1,0],[1,1,0],[0,0.25,0],[0,0.5,0],[0,0.75,0],[1,0.25,0],[1,0.5,0],[1,0.75,0]];outlineConnect=0;fontColor=#232F3E;fillColor=#7AA116;strokeColor=#ffffff;dashed=0;verticalLabelPosition=bottom;verticalAlign=top;align=center;html=1;fontSize=12;fontStyle=0;aspect=fixed;shape=mxgraph.aws4.resourceIcon;resIcon=mxgraph.aws4.s3;" parent="c1IH__bVCFyz_OlSx8WP-38" vertex="1">
          <mxGeometry x="41.66999999999996" y="353" width="45" height="45" as="geometry" />
        </mxCell>
        <mxCell id="c1IH__bVCFyz_OlSx8WP-39" value="&lt;font style=&quot;font-size: 14px;&quot;&gt;Deployment Package&lt;/font&gt;&lt;div&gt;&lt;font style=&quot;font-size: 14px;&quot;&gt;(GG component)&lt;/font&gt;&lt;/div&gt;" style="sketch=0;points=[[0,0,0],[0.25,0,0],[0.5,0,0],[0.75,0,0],[1,0,0],[0,1,0],[0.25,1,0],[0.5,1,0],[0.75,1,0],[1,1,0],[0,0.25,0],[0,0.5,0],[0,0.75,0],[1,0.25,0],[1,0.5,0],[1,0.75,0]];outlineConnect=0;fontColor=#232F3E;fillColor=#7AA116;strokeColor=#ffffff;dashed=0;verticalLabelPosition=bottom;verticalAlign=top;align=center;html=1;fontSize=12;fontStyle=0;aspect=fixed;shape=mxgraph.aws4.resourceIcon;resIcon=mxgraph.aws4.s3;" parent="c1IH__bVCFyz_OlSx8WP-38" vertex="1">
          <mxGeometry x="284.51" y="69" width="45" height="45" as="geometry" />
        </mxCell>
        <mxCell id="c1IH__bVCFyz_OlSx8WP-58" style="edgeStyle=orthogonalEdgeStyle;rounded=0;orthogonalLoop=1;jettySize=auto;html=1;" parent="c1IH__bVCFyz_OlSx8WP-38" source="c1IH__bVCFyz_OlSx8WP-39" target="c1IH__bVCFyz_OlSx8WP-60" edge="1">
          <mxGeometry relative="1" as="geometry" />
        </mxCell>
        <mxCell id="c1IH__bVCFyz_OlSx8WP-60" value="&lt;font style=&quot;font-size: 14px;&quot;&gt;AWS IoT&amp;nbsp;&lt;/font&gt;&lt;div&gt;&lt;font style=&quot;font-size: 14px;&quot;&gt;Greengrass&lt;/font&gt;&lt;/div&gt;" style="sketch=0;points=[[0,0,0],[0.25,0,0],[0.5,0,0],[0.75,0,0],[1,0,0],[0,1,0],[0.25,1,0],[0.5,1,0],[0.75,1,0],[1,1,0],[0,0.25,0],[0,0.5,0],[0,0.75,0],[1,0.25,0],[1,0.5,0],[1,0.75,0]];outlineConnect=0;fontColor=#232F3E;fillColor=#7AA116;strokeColor=#ffffff;dashed=0;verticalLabelPosition=bottom;verticalAlign=top;align=center;html=1;fontSize=12;fontStyle=0;aspect=fixed;shape=mxgraph.aws4.resourceIcon;resIcon=mxgraph.aws4.greengrass;" parent="c1IH__bVCFyz_OlSx8WP-38" vertex="1">
          <mxGeometry x="41.670000000000016" y="69" width="45" height="45" as="geometry" />
        </mxCell>
        <mxCell id="AcuNDtau0FOJBF-5IhUa-1" value="Device Shadow&lt;div&gt;(Model Meta)&lt;/div&gt;" style="sketch=0;outlineConnect=0;fontColor=#232F3E;gradientColor=none;fillColor=#7AA116;strokeColor=none;dashed=0;verticalLabelPosition=bottom;verticalAlign=top;align=center;html=1;fontSize=12;fontStyle=0;aspect=fixed;pointerEvents=1;shape=mxgraph.aws4.shadow;" parent="c1IH__bVCFyz_OlSx8WP-38" vertex="1">
          <mxGeometry x="40.610000000000014" y="260.5" width="48.12" height="47.5" as="geometry" />
        </mxCell>
        <mxCell id="c1IH__bVCFyz_OlSx8WP-48" value="&lt;b&gt;Edge Device&lt;/b&gt;" style="fillColor=#EFF0F3;strokeColor=none;dashed=0;verticalAlign=top;fontStyle=0;fontColor=#232F3D;whiteSpace=wrap;html=1;" parent="1" vertex="1">
          <mxGeometry x="40" y="40" width="350" height="440" as="geometry" />
        </mxCell>
        <mxCell id="c1IH__bVCFyz_OlSx8WP-49" value="AWS IoT Greengrass" style="points=[[0,0],[0.25,0],[0.5,0],[0.75,0],[1,0],[1,0.25],[1,0.5],[1,0.75],[1,1],[0.75,1],[0.5,1],[0.25,1],[0,1],[0,0.75],[0,0.5],[0,0.25]];outlineConnect=0;gradientColor=none;html=1;whiteSpace=wrap;fontSize=12;fontStyle=0;container=1;pointerEvents=0;collapsible=0;recursiveResize=0;shape=mxgraph.aws4.group;grIcon=mxgraph.aws4.group_iot_greengrass;strokeColor=#7AA116;fillColor=none;verticalAlign=top;align=left;spacingLeft=30;fontColor=#3F8624;dashed=0;" parent="1" vertex="1">
          <mxGeometry x="60" y="80" width="310" height="230" as="geometry" />
        </mxCell>
        <mxCell id="c1IH__bVCFyz_OlSx8WP-52" value="Nucleus" style="sketch=0;outlineConnect=0;fontColor=#232F3E;gradientColor=none;fillColor=#4E660E;strokeColor=none;dashed=0;verticalLabelPosition=bottom;verticalAlign=top;align=center;html=1;fontSize=12;fontStyle=0;aspect=fixed;pointerEvents=1;shape=mxgraph.aws4.iot_greengrass_component_nucleus;shadow=1;" parent="c1IH__bVCFyz_OlSx8WP-49" vertex="1">
          <mxGeometry x="210" y="31.5" width="40" height="40" as="geometry" />
        </mxCell>
        <mxCell id="c1IH__bVCFyz_OlSx8WP-73" style="edgeStyle=orthogonalEdgeStyle;rounded=0;orthogonalLoop=1;jettySize=auto;html=1;" parent="c1IH__bVCFyz_OlSx8WP-49" source="c1IH__bVCFyz_OlSx8WP-53" target="c1IH__bVCFyz_OlSx8WP-52" edge="1">
          <mxGeometry relative="1" as="geometry" />
        </mxCell>
        <mxCell id="c1IH__bVCFyz_OlSx8WP-53" value="TokenExchange&amp;nbsp;&lt;span style=&quot;background-color: initial;&quot;&gt;Service&lt;/span&gt;" style="sketch=0;outlineConnect=0;fontColor=#232F3E;gradientColor=none;fillColor=#4E660E;strokeColor=none;dashed=0;verticalLabelPosition=bottom;verticalAlign=top;align=center;html=1;fontSize=12;fontStyle=0;aspect=fixed;pointerEvents=1;shape=mxgraph.aws4.iot_greengrass_component;shadow=1;opacity=40;" parent="c1IH__bVCFyz_OlSx8WP-49" vertex="1">
          <mxGeometry x="60" y="31" width="40" height="40" as="geometry" />
        </mxCell>
        <mxCell id="c1IH__bVCFyz_OlSx8WP-67" style="edgeStyle=orthogonalEdgeStyle;rounded=0;orthogonalLoop=1;jettySize=auto;html=1;startArrow=classic;startFill=1;dashed=1;" parent="c1IH__bVCFyz_OlSx8WP-49" source="c1IH__bVCFyz_OlSx8WP-63" target="c1IH__bVCFyz_OlSx8WP-52" edge="1">
          <mxGeometry relative="1" as="geometry" />
        </mxCell>
        <mxCell id="c1IH__bVCFyz_OlSx8WP-63" value="aws.samples.S3Downloader" style="sketch=0;outlineConnect=0;fontColor=#232F3E;gradientColor=none;fillColor=#7AA116;strokeColor=none;dashed=0;verticalLabelPosition=bottom;verticalAlign=top;align=center;html=1;fontSize=12;fontStyle=0;aspect=fixed;pointerEvents=1;shape=mxgraph.aws4.iot_greengrass_component_public;" parent="c1IH__bVCFyz_OlSx8WP-49" vertex="1">
          <mxGeometry x="210" y="140" width="40" height="40" as="geometry" />
        </mxCell>
        <mxCell id="c1IH__bVCFyz_OlSx8WP-59" style="edgeStyle=orthogonalEdgeStyle;rounded=0;orthogonalLoop=1;jettySize=auto;html=1;startArrow=classic;startFill=1;" parent="1" source="c1IH__bVCFyz_OlSx8WP-60" target="c1IH__bVCFyz_OlSx8WP-52" edge="1">
          <mxGeometry relative="1" as="geometry" />
        </mxCell>
        <mxCell id="c1IH__bVCFyz_OlSx8WP-71" style="edgeStyle=orthogonalEdgeStyle;rounded=0;orthogonalLoop=1;jettySize=auto;html=1;startArrow=classic;startFill=1;" parent="1" source="c1IH__bVCFyz_OlSx8WP-64" target="c1IH__bVCFyz_OlSx8WP-70" edge="1">
          <mxGeometry relative="1" as="geometry" />
        </mxCell>
        <mxCell id="c1IH__bVCFyz_OlSx8WP-72" style="edgeStyle=orthogonalEdgeStyle;rounded=0;orthogonalLoop=1;jettySize=auto;html=1;startArrow=classic;startFill=1;" parent="1" source="c1IH__bVCFyz_OlSx8WP-64" target="c1IH__bVCFyz_OlSx8WP-65" edge="1">
          <mxGeometry relative="1" as="geometry">
            <Array as="points">
              <mxPoint x="290" y="420" />
            </Array>
          </mxGeometry>
        </mxCell>
        <mxCell id="c1IH__bVCFyz_OlSx8WP-74" value="Sync" style="edgeLabel;html=1;align=center;verticalAlign=middle;resizable=0;points=[];" parent="c1IH__bVCFyz_OlSx8WP-72" vertex="1" connectable="0">
          <mxGeometry x="-0.0488" y="2" relative="1" as="geometry">
            <mxPoint as="offset" />
          </mxGeometry>
        </mxCell>
        <mxCell id="c1IH__bVCFyz_OlSx8WP-64" value="S5CMD" style="sketch=0;outlineConnect=0;fontColor=#232F3E;gradientColor=none;fillColor=#E7157B;strokeColor=none;dashed=0;verticalLabelPosition=bottom;verticalAlign=top;align=center;html=1;fontSize=12;fontStyle=0;aspect=fixed;pointerEvents=1;shape=mxgraph.aws4.run_command;" parent="1" vertex="1">
          <mxGeometry x="268.72" y="340" width="42.55" height="30" as="geometry" />
        </mxCell>
        <mxCell id="c1IH__bVCFyz_OlSx8WP-66" value="" style="shape=image;verticalLabelPosition=bottom;verticalAlign=top;imageAspect=0;image=data:image/png,iVBORw0KGgoAAAANSUhEUgAAALwAAACBCAYAAAB6rdDYAAAACXBIWXMAAC4jAAAuIwF4pT92AAAKEWlUWHRYTUw6Y29tLmFkb2JlLnhtcAAAAAAAPD94cGFja2V0IGJlZ2luPSLvu78iIGlkPSJXNU0wTXBDZWhpSHpyZVN6TlRjemtjOWQiPz4gPHg6eG1wbWV0YSB4bWxuczp4PSJhZG9iZTpuczptZXRhLyIgeDp4bXB0az0iQWRvYmUgWE1QIENvcmUgOS4xLWMwMDIgNzkuYjdjNjRjY2Y5LCAyMDI0LzA3LzE2LTEyOjM5OjA0ICAgICAgICAiPiA8cmRmOlJERiB4bWxuczpyZGY9Imh0dHA6Ly93d3cudzMub3JnLzE5OTkvMDIvMjItcmRmLXN5bnRheC1ucyMiPiA8cmRmOkRlc2NyaXB0aW9uIHJkZjphYm91dD0iIiB4bWxuczp4bXA9Imh0dHA6Ly9ucy5hZG9iZS5jb20veGFwLzEuMC8iIHhtbG5zOmRjPSJodHRwOi8vcHVybC5vcmcvZGMvZWxlbWVudHMvMS4xLyIgeG1sbnM6cGhvdG9zaG9wPSJodHRwOi8vbnMuYWRvYmUuY29tL3Bob3Rvc2hvcC8xLjAvIiB4bWxuczp4bXBNTT0iaHR0cDovL25zLmFkb2JlLmNvbS94YXAvMS4wL21tLyIgeG1sbnM6c3RFdnQ9Imh0dHA6Ly9ucy5hZG9iZS5jb20veGFwLzEuMC9zVHlwZS9SZXNvdXJjZUV2ZW50IyIgeG1sbnM6c3RSZWY9Imh0dHA6Ly9ucy5hZG9iZS5jb20veGFwLzEuMC9zVHlwZS9SZXNvdXJjZVJlZiMiIHhtbG5zOnRpZmY9Imh0dHA6Ly9ucy5hZG9iZS5jb20vdGlmZi8xLjAvIiB4bWxuczpleGlmPSJodHRwOi8vbnMuYWRvYmUuY29tL2V4aWYvMS4wLyIgeG1wOkNyZWF0b3JUb29sPSJBZG9iZSBQaG90b3Nob3AgV2ViICgyMDI0LjIyLjEuMCA0NTRkNTkxZDJlMykgKEdvb2dsZSBDaHJvbWUpIiB4bXA6Q3JlYXRlRGF0ZT0iMjAyNC0xMS0yNFQxOTozMDoyMC0wODowMCIgeG1wOk1vZGlmeURhdGU9IjIwMjQtMTEtMjRUMTk6MzU6NTktMDg6MDAiIHhtcDpNZXRhZGF0YURhdGU9IjIwMjQtMTEtMjRUMTk6MzU6NTktMDg6MDAiIGRjOmZvcm1hdD0iaW1hZ2UvcG5nIiBwaG90b3Nob3A6Q29sb3JNb2RlPSIzIiB4bXBNTTpJbnN0YW5jZUlEPSJ4bXAuaWlkOjk2Yjg4MGY3LWQ5YmItNDJiMi1hZDdjLTRlZjExMjZiNDk2ZCIgeG1wTU06RG9jdW1lbnRJRD0iYWRvYmU6ZG9jaWQ6cGhvdG9zaG9wOjhhZjFkNzdlLTQxNTktMzk0NS1hOTA4LThkNzJlMDc3OGIwYyIgeG1wTU06T3JpZ2luYWxEb2N1bWVudElEPSJ4bXAuZGlkOjVmYTNmOWZmLWRlZTMtNDc2Zi04ZGU0LTI5NWNhZGJmYmQ0NyIgdGlmZjpPcmllbnRhdGlvbj0iMSIgdGlmZjpYUmVzb2x1dGlvbj0iMzAwMDAwMC8xMDAwMCIgdGlmZjpZUmVzb2x1dGlvbj0iMzAwMDAwMC8xMDAwMCIgdGlmZjpSZXNvbHV0aW9uVW5pdD0iMiIgZXhpZjpDb2xvclNwYWNlPSI2NTUzNSIgZXhpZjpQaXhlbFhEaW1lbnNpb249IjE4OCIgZXhpZjpQaXhlbFlEaW1lbnNpb249IjEyOSI+IDx4bXBNTTpIaXN0b3J5PiA8cmRmOlNlcT4gPHJkZjpsaSBzdEV2dDphY3Rpb249ImNyZWF0ZWQiIHN0RXZ0Omluc3RhbmNlSUQ9InhtcC5paWQ6NWZhM2Y5ZmYtZGVlMy00NzZmLThkZTQtMjk1Y2FkYmZiZDQ3IiBzdEV2dDp3aGVuPSIyMDI0LTExLTI0VDE5OjMwOjIwLTA4OjAwIiBzdEV2dDpzb2Z0d2FyZUFnZW50PSJBZG9iZSBQaG90b3Nob3AgV2ViICgyMDI0LjIyLjEuMCA0NTRkNTkxZDJlMykgKEdvb2dsZSBDaHJvbWUpIi8+IDxyZGY6bGkgc3RFdnQ6YWN0aW9uPSJzYXZlZCIgc3RFdnQ6aW5zdGFuY2VJRD0ieG1wLmlpZDo1NzBjNWY1YS0zMWE0LTRlNjctODE2ZC05YTFlNzJhYTk0YTgiIHN0RXZ0OndoZW49IjIwMjQtMTEtMjRUMTk6MzU6NTktMDg6MDAiIHN0RXZ0OnNvZnR3YXJlQWdlbnQ9IkFkb2JlIFBob3Rvc2hvcCBXZWIgKDIwMjQuMjIuMS4wIDQ1NGQ1OTFkMmUzKSAoR29vZ2xlIENocm9tZSkiIHN0RXZ0OmNoYW5nZWQ9Ii8iLz4gPHJkZjpsaSBzdEV2dDphY3Rpb249ImNvbnZlcnRlZCIgc3RFdnQ6cGFyYW1ldGVycz0iZnJvbSBkb2N1bWVudC92bmQuYWRvYmUuY3BzZCtkY3ggdG8gaW1hZ2UvcG5nIi8+IDxyZGY6bGkgc3RFdnQ6YWN0aW9uPSJkZXJpdmVkIiBzdEV2dDpwYXJhbWV0ZXJzPSJjb252ZXJ0ZWQgZnJvbSBkb2N1bWVudC92bmQuYWRvYmUuY3BzZCtkY3ggdG8gaW1hZ2UvcG5nIi8+IDxyZGY6bGkgc3RFdnQ6YWN0aW9uPSJzYXZlZCIgc3RFdnQ6aW5zdGFuY2VJRD0ieG1wLmlpZDo5NmI4ODBmNy1kOWJiLTQyYjItYWQ3Yy00ZWYxMTI2YjQ5NmQiIHN0RXZ0OndoZW49IjIwMjQtMTEtMjRUMTk6MzU6NTktMDg6MDAiIHN0RXZ0OnNvZnR3YXJlQWdlbnQ9IkFkb2JlIFBob3Rvc2hvcCBXZWIgKDIwMjQuMjIuMS4wIDQ1NGQ1OTFkMmUzKSAoR29vZ2xlIENocm9tZSkiIHN0RXZ0OmNoYW5nZWQ9Ii8iLz4gPC9yZGY6U2VxPiA8L3htcE1NOkhpc3Rvcnk+IDx4bXBNTTpEZXJpdmVkRnJvbSBzdFJlZjppbnN0YW5jZUlEPSJ4bXAuaWlkOjU3MGM1ZjVhLTMxYTQtNGU2Ny04MTZkLTlhMWU3MmFhOTRhOCIgc3RSZWY6ZG9jdW1lbnRJRD0ieG1wLmRpZDo1ZmEzZjlmZi1kZWUzLTQ3NmYtOGRlNC0yOTVjYWRiZmJkNDciIHN0UmVmOm9yaWdpbmFsRG9jdW1lbnRJRD0ieG1wLmRpZDo1ZmEzZjlmZi1kZWUzLTQ3NmYtOGRlNC0yOTVjYWRiZmJkNDciLz4gPC9yZGY6RGVzY3JpcHRpb24+IDwvcmRmOlJERj4gPC94OnhtcG1ldGE+IDw/eHBhY2tldCBlbmQ9InIiPz66qm5KAABkyElEQVR4nO29d5gcV50u/J6q6qrOaXIejUY5jWRbli05SpYty9g4Z4xxWAyG5XKXDffucjd8G9gEu1wWWNgAdxecMDhnJSvnNEqjyblz7ornfH9UV6tnNKNkBRv7fZ5+unumu7rq1Fu/es8vHcIYw2c4/zh27NiS7du3f8HhcMRuvPHG7wQCgfSl3qfPAJDPCH9+kUwmq9asWfM/Pvjgg6/G43G3zWZDS0vLnuXLl//zFVdc8d+iKGqXeh8/zfiM8OcJ+XzeuXfv3vvfe++9bxw/fnw+z/PgeR6MMWiaBkEQMH/+/PdXrlz5t7Nnz37vUu/vpxWfEf48YOfOnfd/8MEHXzty5MhSSilsNttJn7GI73K5lEWLFr188803/11jY+OeS7C7n2p8RviPgOHh4dmvvfban27btu1eTdNgs9lACDnldyilUFUVVVVVoZtuuum7ixcv/rdgMBi+SLv8qcdnhD8HjI6O1m/btu2pDRs2PD06OlotiuJpiT4euq6DMYaGhoaOW2655W8vv/zy/7Tb7foF2uXPUMBnhD8LZDIZ58aNG7+6fv36rwwODjZzHAdBEM55e4wx6LoOQRAwc+bMdatXr/6L2bNnrzmPu/wZxuEzwp8hDh06tPzNN9/8k/3791/3UYk+HowxqKoKr9ebXbp06X9cffXVP2hubj5y3n7gMxTxGeFPg87OzrkbN2785ubNmx/J5/M2URQv2G9RSqFpGsrKyuI333zzdxYvXvz9srKy3AX7wU8hPiP8JIhGo2Vr16795qZNm56KRCIVNpsNHMddlN82DAMA0Nraun316tV/0dbW9vpF+eFPAT4j/Dgkk0muo6PjjrfffvuPjx49uojn+ZPkS+kE9UKNX6kb84orrnhpyZIl3589e/a2C/JjnyJ8RvgSdHV1XfbWW299e+/evbfrug5JksZYdcZY0fqWguO4kz5HKQWl9CNfEJbM8Xg8+RUrVvzztdde+7fl5eWxj7TRTzE+IzyAUChUu379+m/t3LnzkUgkUg4A+XweqVQKqVQK6XQauVwOqqpCVVVQSotWnhACm80GSZJgt9vhdrvh8/mY1+tlLpeLiKJICCEwDOMjXQCGYYAxhubm5vabbrrpb+fNm/ec1+tVz98ofDrwqSZ8LBZzHj9+/J7333//W7t27ZobDocRCoUQDoeRTqehaadOe5nM987zPBNFES6XC36/n1RXV6OyshKBQAA2mw2GYUx4pzgdLDemKIqYO3fuu8uWLfvHyy677J2z3tCnGJ9awu/du/fuV1999X++//77V3V0dCAWi0FVTxhMQgg4jhtjyc/mmTFWlDYAIIoiAoEA6uvr0dTUBJ/PB8AMQJ0tLH3vcDj0K6644sVbb731j2tra7vOekOfQnzqCN/f39/2/PPP/8kvfvGLOw8ePEgsK26R23pYOFfCT/Q3S9bY7XbU1dVh2rRpqKysnHRucDpQSmEYBqqrq/uXLVv24wULFvxrY2PjZ2kKp8CnhvC9vb3NW7ZsefLHP/7xl9etW1cGnJhsng2Jx78ff5FMRvzx2zAMAzzPo6GhAbNnz4bf7y+mG5wtrLtEY2Pj4Wuvvfa7s2bN+u+6urrP/PcT4Lee8KFQyLtjx46vPffcc8+88sordel0GlbqroVTyRJrokkIAc/z4DgOpam/1v+tZ+v/ltdmMotPCCladlEUMXv2bLS2tgJAUQadDSx9z3EcZsyYseW22277H3Pnzv3MjTkOv9WE37Vr123vvffen73wwguL9uzZA47jiqm7p7LIlrxwOBwIBAIIBoPw+XxwOp2QJAmCIIDjuCJhVVVFPp9HOp1GIpFAMplELpcDYwyCIEx4Byh9bW2nvr4ebW1tkCTpnCSOtS1d1+F2u7OLFi16+YYbbvhOS0tL+zlt7LcQv5WEP3z48OLNmzd/Y9euXfe9//77fEdHxxif+kSkA0yiC4KA6upqNDU1oaqqCi6Xq3g3sCai1mvr+6WEppRClmXEYjEMDAxgZGQEqqpOSvzSZ03TEAwGsXjxYkiSdE6W3gKlFLquo6ysLLZ8+fLvLlmy5Efl5eWRc97gbwl+qwifSqUq3nzzzT/ZtGnT49ls1r1r1y4cPHgQkiSdkmyWJKmrq8OcOXNQWVkJjuOKk8yzRWkgKplMorOzE/39/WCMFS+eifZlPOkt2fRRYPnvW1pa9t95553/e968eZ/qNIXfCsKrqiru2LHj0ffee+8bPT09cyVJQkdHBzZu3IjSXPWJni2rvnDhQkybNg2EkHNyFU4GS8+PjIzgwIEDyOVyY1IVJrP0jY2NmDdv3jlLm1JYMsfhcKgLFy58feXKlX83ZcqUrR95w59AfOIJv2/fvlvXrFnzzYMHDy630gHy+TzefPNNyLIMnudPadkFQcCyZctQW1sLTdMuWG6MIAjIZrPYuXMn0ul0kfTjLbwFSikWLlyIioqK80J6a5Ici8UwZ86cLX/xF39x9Ufe6CcQ5y+p+yIjHo/XvvXWW99ev379E7lcThBFETabDTzPo6OjA7lcDpIkAcCEcgYwCb948WLU1taOCTpdCOi6DpfLhUWLFmH79u1Fj0rpPpU+M8YwMDCA8vLyj/S75rEDqqqxwqSa5HL5C5fj/DHHJ47wiUQiuHnz5qc//PDDp4eHh6dwHDeG2KqqYmhoCKIontLHrus6Ghsb0dTUdMHJbkHXdXi9XrS0tODo0aOnJLwoikin08hkMnC73ec8l9B1Hel0Gtlsllg5QKLN9qltFfKJIbyqqtyOHTseeeedd/6gt7d3NiHkpLRdjuOQSqWKOvlUE1VBENDU1HTBJMxkMAwDVVVV6Ovrg2EYp9xHSikymQw8Hs9Z/YZ1h0in00in08W7Ccdx4AiHvJby5/VYlUMIjp7fo/v44xNB+P7+/tlvvvnmn2/duvXuydpgAOaJVhTltN4QxhhEUYTH4/lIrr9zgfXbTqcTmUxmTEpD6XFYOF0CWyms71mZnqqqFnOCToCDjqxvOLPnuhb/8hc+8gF9wvCxJvzw8PDUDRs2PLt58+YvxOPxoKXRJ0Opb7xUzlh/K31/qu1cDFgW91QXZunzqWAdm6qqSKVSyOfzxd84+bMA00RDojVD5+VAPmH4WBI+k8l4Nm3a9OV33333m+FwuJrneZxpLak1eZ0sx8V6TSlFPp+/JFZe13Xoul50WU52YVp3g1OB4zgYuoF0xtT7lNJTliIKNh4DvaO1rz634QsLF6W3LFly5Ud3AX2C8LEj/N69e29/8803v93R0XHZmZzwUlBK4XK54HK5kM/nJ5y0Wq8ZYxgZGUFVVdV5P4ZTged5hEKhYvs9C6UktfaV4zg4nc4J5xnmZxgy6QxS6dQYnX4qcIRDJpshP/7pvzx17bLrpkQi4b/3+XzvXXPNNRf3qr9E+Nj44Q8dOnTVpk2bfnfnzp135/N54Uy6eE0EQRCwb98+9PX1nVHezMKFC1FeXn5eg02TgeM4qKqKQ4cOQVXVSb1I1h3I6XRi+vTpY7ZBCAEBgSzLSKaSUBRlwmzMSfeBcMgreRw6dhAcOExpbsGyq6/ZtHBh25v33//AX53fI/744ZJb+FAoVLV27do/XLdu3TOZTEay2WxnZdXHgzGGxsZGDA8Pn9LtZ3328OHDaGtrg8fjuaCkt1IVurq6itb9VHMMQggqKirA83zBmwMQwkHTdKRSZnKatd2zB4PACzCogeNdHegf7Fu6e8+upYl40jZz5syXr7v+ugMf9Xg/rrikFn7jxo03vPvuuz8cHBycYaXWng8IgoDDhw+jp6enePGcyvUnSRJmzJiB8vLyYvH1+YKVVpzNZtHT04NcLnfafBrDMOB2u9HS0lJMOTYMimwmg3QmDcMwznmsTAufw7HOo2CMAiDF1Ga/z4/5cxZkPve52/+yuXnK88uWLe0+L4PwMcIlJfxjjz32/TfeeOPZa665Rq+pqeEMw+DOVxidUoo9e/YgmUxOKm1KP0sIQU1NDerq6uB0OoskONfxsfS0pmksEolgdHSUWEUfE+3D+HSHKVOmwG63FyfXpW7Gc5F6xf0aR3jGUHJR6QAI6mrq0DZ/UaR1WsvmhYsW/tXNN636rcmr5//0T//0kv34K6+8csuWLVuu7O7uJqlUigWDQeZ2uwml9NzPaAE8z6OsrAyJRAKKohRz2EtdltZr65FOpxGNRouft9yg47X2+Nfjt0MIYYqiIBqNssHBQRKPx4nVnq/08+OfgRMBMafTCUVWkIgnkEqnit6Xj0J2a591XUc0HoFBdSbaJOJ0OiHLMkghMJVIJdDX1+scHh6dMTIUuj+RiAupTLi7qXFq6qOdlUuPS6rhCSGscALJ0aNH+f7+fjp79mw6Z84cSJLEf5SQv1U7umDBAhw5cgSJROK00VcrHXd0dBThcBhOpxNutxsulwt2u714AVjbKK100jQNmqaxfD6PXC4HWZaJruuE47gxc5JTzSckSUJ9fT1EUUQ0GkU2my1WW50vMEJBdAlSpoVVNOZQU1MFyWZHKBrC4PAA8nIOAi9AMzR09x5HOBLyDA0P/nnLlCnfSKeU353XNuMXjbXTPrEenUtKeMtiWTJGURRu586d6O7uNtra2vQpU6ZwALhznUxa5XNz585Fb28vRkZGir8LTE4+y12oKApkWUYkEimW9ZUGjCYo8SPWds6kusq6aBhj8Pv9KK+ogGreGYpuxvNJdguMEdhFJ8rLJWKX7GAMqCyvhN/nx8joMEbDI4U4gYBMLo397XsxMNQfDIcj/zFr1syvX371vO/fser+/3fed+wi4JJKmldfffWWvXv3LrFITykFz/OQZZnr7u7mwuEw9Xq9zOfzEZzjfMOykMFgEG63u9hMyZpMTiYvrP9bj/FWfXxxSGmta2lx+KnkC2MMdru9WFmVTCSQTqdxPifw40EIYGgEsT5C0qksZCMJQSTgBQE8x8Pn9cHn9cMwDOTyORCY45DLZTE0PMgNDg7WxUYzKw4fPjS9PfbiqmCNFAnYpwxckJ29ALjkbslSWNKAEDMxbGBggB8eHmbTpk2j8+fPh8/n43VdP2svilUzGggE4PV6EYvFEA6Hi66900VlJ8pzOdPn8a8t2O12+Hw+SHY7ctksEokEgHN1M54tGAjjoEUDSGQUZONp+Ksy8Pt9sNkkOB1OTG1qRVmwHMMjg0hn0mYNLxiGR4cQT8Y9XT2dX6zcVYFE5weX3XqbdO/86Ut7LsKOf2R8rAhvwSJ+IcWXHD58mO/t7aWzZ8+iM2fN4px2JzT97Is1rOzEiooKBINBpNNpxONxZDKZog++lPynI/GZXAjW8Vh3DLvdDo/HA0mSkMvnEY1ExrTuuxggplMfHM/ANAnqsIhwMo9MRQz+ShEetxccx8Pv9cPj8iASC2M0NAJZMQtqVE3B8e6jiMTCLJPOXd51ZHTv4mu2v7Psmqufmdl85ce67+XHkvClIMTMDVdVldu5cxc6OzuxYMF8tLRMBc8LZx0sKm165PP54PP5oKoqstksstks8vl8sfKpdMJ4JhfB+PeWZ0aSJDgcDjgcDgiCgFwuh0gkAk3TLphOnxAE4HgAlDBY7oLCDYXlncj126HEM0hXReArc8DlcIOAoKKsEj6vH6HwKCKxMAzD1PeJVJwk0wkMhwZ9AwND93UeCtUuvyn2DytuXPWbi3NAZ49LSviztdA8zyOVSmPD+g/Rcfw42ha0oba2rqipzxaWNLLZbAgEAggEAjAMA5qmQVEUqKoKTdOKvSBLe9QAY3NeSjW8zWYb87DmALl8HrFYrJgOcLH6zQMm0akBJPo5xPsLmaIcQBgAEBCOgYGDkfIhnXUiH0vDWRZGoMwDSRLBczxqq+sQ8AcxGh5BIhkHAQFHOISjo4gn4whFRpf19vYuy6TUewRX/tDia2cfq5Tmf6yS0z4WhD+dhbMmi6qqwurXPjw0gtGRd9E6bSrmz1tgdu7SNNBznNiW7ovVCbj0/9bFMb4DcClxJ7PWZ5K2e6FAOHOimo1xiPfwyCcJQEAIxwAQgAAMDGAEBAzgGaguQI8GQFwKOO5EWxJKKeyiHY11zQj4ghgNDyOby4DjeFBqYGCoH7F4FJFI+Lnaujqj/eDhLffca/zu1PqF+y/aAZ8Gl5TwmqbxBetIC42NuNNZfcvaWsllRw4fRV9vP2bPmYNZs2bBLknn3LLOwkQR1lKPy6m+Y33PKq/LZDJnlLZ7vkEIQHgGNcMh3mdDJsSBMYATThyXuasMpEB8aph/85QDZVMonH4J1GBjnASUmRe8x+2By+FCLBlFOBqCoprBOlmRsf/QPqF/qF8YGBi8fqg38cbKm/v/z+pVt//7RTv4U+CSEl5RFL5AIkZM00gZY2fECk3Tiq2jVVXFzh070NXVhba2Nkxpbi5GFM8nzuQiIoSAAchkMkil09ALOv1ikZ0A4AiDrnNI9tqQHBJANQIiMBAAKBwCg3lRAACjJtklN1A+hcFTZX6IGpOnVlBKwcBQFiiH1+1DJBZCNGHOVwVBQDKVYAbVFclucyWfT/44k5Jrli1b+ld1dXWXND33kvrhX3jhxVuPHDlyBcdxzEonsII3wImeLgAm1emEkKJOzufz6O7qQjgSgc/rLbakvhj5QtYdQFYUJOLxC+5Pnwg8Y6A8EJMlxA7YkQubkWWOB2Da8SLLzXcEVAd4G0H5FKBmFoPTX7D0p/H8WmNq3bm8Hh98Hh80XYOiKoUObHkoiqLm5Gzm0OFDt4wMj1w3PDTk9vq8/X6/P3PhRmJyXFILHwj4pEJ2IqGUklKy+3w+k0CyfMaksSaNA/39GBkexrTp07Fg/nx4PJ4L2nOmkCSGVDqNXDZb/NvFAs9M6x2x2XDU7Ua8sYy2DKaIM5cjlCMAMy1/QbUX5QsA+GuB8hYKycVg6IBRclM81XhZSXfm5gpzLF2DqpnzlenTZ2Bh20L+gw/e80aiESrZJXR0diyf1jJt+Y6dO/9w1uzpP1l4+bwfXbFw2UVt730pCU8cLjFYIHxRuzscDpSVlcHlciEajZ4VSa31kKyQ/qH2dvT29mLevHmYOWNGUf6cL3AcB4NSJFMpZNIfLW33XEAACIwhzfPocDox6PeDeX2Az0mYKwfCULTqFtmZAVAKOP0M5VMZXOUUzDDJPtFQn470AEFeySMcHcXQyBAcdgeeevJpPPuVr7GmhiZ8uOlD8r1/+kf+w40biKPMntYMNT44PIBoNPLHvT399xLD/vnLL7/8oi3mcEklzc4du5atXbtusRVZraioQHl5OWw2GxhjyOfzxcqgySRNaSG01VLO6qdos9mg6zr6+vowMDhodgMOBovbO1dY8sVyM14Kq25jDBoh6HQ6sS8YRKKiEgj4AbcIMaWhbF8SQl4nrEBKwkz5YrMTVE6nqJ5JIbkBOgHRSz1Wk5UXEmK2BEwkEugf7Ec4EsLyG5ez7/3DP+GLX3icOCQH0pk0V1dXh1tXrUZDQyM5fryD2UTbcENDYx8jLJzL5yqGBodWDgwMNLtcrl3BYFC50ON2aQNPBAZgWvXKysoiQc+H9rX85oIgQBRFxKJRvPfee2hqbjZb2BXK+s6G+NaJVhSl6Ga82P50njGAEAxKEo66PcgEAoDHDdgFcKqBil1JVrkjBi6jEcrzIGCguumxKWtmKJtCYXMw6BrATjOnn4jsVtF4Kp1CLBZDJpPBlJYpePrpv8Tn77iLCIKAdDoNAKTQV4cYhkFuv+12tviKK+1vvvV6XTwR76quru6vqqzaFQ6HG7fv2Pa4LMu1kUj078orgv2tU6dlL8jg4RITXlU1CTDJGY1G4fV6i13EzhSnuuVaKQqU0mKKbk93NwYHBjBr9mzMmzcPLqfzjPQ9x3HQDcNs9JTNgl1kNyMHgKcUcZsNxzweNurzEXi8gFMECJi/K8dqt8aJYzAHQyCECRxgmJmRngqK8lYKh5+CGoChoeitGQ8rsDZ+PKy7YiaTQSwWQyKRQCAQwLPPPotHH30U5eXlyGaz0DS1WM5oGR3DMJBMJoldknDv3fcFuro6b2o/1L6nvKz8+dqa2q4t+S10x+7t8xnYn/m9QXXtxjdis67yvt7Q0HioybFi8HyO4yWteHr3g9e+/MgXHvrnaChrswkiCAicTmeR+JFIBJlMBjzPQ9f1CfW33W4vBnsopVCUk++K49t8MMagqSq8Ph/mt7VhWmsrBJ6fsOlR8URns0in0zBKekJeDFg6Pc9xOO5woNfvB/X5AZcdsBE4Qxqr3Z6A/1gGjDFi2AgYBQydwe5lKJ9qwFtt+s4N/UQQqbTP/fjXE/XAzxfkWywWA8dxuPnmm/E7v/M7mDFjBmRZLs5frHNhtSKx3MfWs+UqVhUVA0MDvclU8m2OI0Pbtm+7tr+/v2pqy9RIXXWjZ2i0Z6Z/5nD6ns8//OScijvfOF/jeUk1/NSWxu5QqufB7j2KP6dFwYgBTTWQz+eLOS+6rhc9AqUaXpIkVFdXQ5Iks1qHnFhCZjzG63yre5mqqujp7sbIyAjcbjf8gYA5sStYudITnc1mgYvsZhQK8qXX4WB7AgESqawCC/oBtwRb3mD1O9KsaW2UOEcUYtg4wngOVAMEEahopaiZY8DuY2flZrRgHb+u64hGoxgeHkYqlcLChQvZt7/9bfLkk0/C5/MVo8elgTnrXJU+Sv+maRo0XYXL6fI77I5F2UwmmMqkEsc6jtW2H2pvjsRDcjKcF/v3G1VKXGysqKh6u7y8/Ly4MS+ZhdcMxfXOr7Y981//uOnPclE4I3IHOlJrkVR6wREBBGPbXBcqiiAIQjHNl+d5JJNJJJPJ4kVxOgvPGCu6Oi3/vZWSPLW1FW1tbfB6vZALdaSlJ/RigWcMhDGERBEdXi+LeX0EHg/gtIEYjFUcy7PaHSkiRVWiCwDjzMkn4QBvrYHyqTpsTgqqA5SevVW3xjKRSCAajSKVSqGhoQFf/OIXcccdd8DpdBbnL6V5/uOt+3jLXvpaVdUxFj+ZTKrrNqyV3//gPTESikmBhZROvyfAOYiLlB1dGFm5+I4/mTlnxr/OnTv3I1VbXRLCH23vuuaFf9n8J1ve6bqJMAKOJ+CJDTpTMZDZhe7URuT0GAROBMGJqiin0wm/3w9BEIoBj1QqdU6EtyAIQrH0T1VVOJ1OLL7ySjgdjuKFcLFgyZcUz+OY04khnx/w+QCnBAiE+QZVVr89BU+vTAwOhPKmm5FRBmc5RUWrDkeQFiQNLR6v9TwRyUv/Zq1bZdX2ZjIZSJKEO++8E48++ihqamqKd9+JyG5p99MRfqJnSik4wqGnt4e9+uvXmfLAevI7jz+DsN6DX/7RRlJ+8Gqs+vxN/zV16tTfXbVq1TmnIF9UwvcP9M9555e7n1n70vGHoiOZgCDyIBwp+MUYAA48JyKvxdGd3oSBzA7oVAHPmdl6fr8fDocDwIkT9FEJD4yN1mqahrlz56KhoeGiNGcCThBd5gi67A70eH3Q/X7A5QBEDvakzup35ln5fpVAY4SKAOU1GAaF5GEom6rBV0sBnNDplvfpVJa8NAWaEIJcLlespc1ms6itqcFf/83fsEWLFhFZlovyciKil0qgUpJPRvpSC1/6f0EQAJ2jvbYdUK7dhyHHLrz/pSxiH7i5mqZKXHn5kq5FixatveGGa/9l+vRZu896rC8G4YeHh5vXrVv37MatGx7u+6CsmsV94NzWBHHsBAlgIIQHBwFJdQDHk+sQyh829TOxQZIkeL3e4mT1TCRNaQ/5iQhf+hnDMDBv3jzU1tZeFMILjIECGJAkdHi8yPkDgMcF2HnwCmM17TlU78lBUlToC49D9cWIMepiUs80lFXZSKBZBSdaOn1iy30q0lvd0CzPi6ZpkGUZU5qb8PRTT2L+gjYwBpSVl4HnT6xaMhHprYXUzpbw1t+t+RchBDbmoLI9jt09G/D6Tz5EJBohhIBIoh2NDU1Y2HbZ6I03XP/dhQsX/WNLS8sZt1i+oJPWnTt32vbt2/fYL37xi3/dsmnrbTKXdtu/tJ1itIJhoBwglKCQpmoW4ZiVOGAMDAbsgg81rnnw2mqQNWLI6zHougE5J0M3zMQxXddPOWm1KoxKyTsRka3gF2MMVVVVF7zJKs8YeJjpAHt9PvSUV0ArLwe8DoAjrKJbZdM+SJGKQzIhORshN+9n2p2bieIKE4+bQ0NZJfFX8gApkP00hmsiNyNjDPF4HMPDw8hkMsjn83C7XXjkkYfw7W//Hyy56mrwgoBMOo1kMlm8U5YSvZT44yeqZ/sohQGNcJpIpvjmYkHbfCIIAmRZRjwZJ7FYFH39fe6uzq4VuqYvTiaTB6dNmzZyRuN+oQi/du3a6z744IMfrVmz5pvxeLxMtIngeZ7yj2wCf/c2EJcM1lEHxDyECEYxyYOgpHUFKBgoPFINalzzIHEeZPQRKDQDXdWRz+fHdAorJbwgCAgGg6isrCzerksnVeNxsQhPYEZJ0zyPdrcbh8rKka+oAPweQOLgCels2oYs6nbmOCFHCRUJGCGAIjJB1dEYu4zVZ9sITwRiUDrGnz6e1KeKkmYyGQyPDCMejxcNxg3XX4f//b/+F1bf9jlIkr04h3E4HGCMQVEUeDzugseLnGTdz5bgpd+ZcKwJg8E04nQ6yby580nbgoWEgEMsHkUiGUcoHMLhI4dbhweHHkomU9WMsfba2tpT9s4574Tfs2fPwueee+6v33vvvb/p7++fYbkECQgjAgO7sgvMl+O4y7rBLdsHpvGEHa8DkSWMIb7JfAAAYwYIeAQdLahyzAYhDGltFJohgxpje7tQSuHz+YqdAKzJqOVVAC4N4S2iqxyHDqeT7Q8GSbKiEgj4AKcN9jRlU7bnWcumHHFEdUIFk+hUJxDdFJU1ImqlRmKHhxhMI4yxYtLWGf1+gZiKohT77sh5GbqmYfasmfjas8/ioYcfQVlZOTRNKybiWXIDsHKVzLGjBi2WMFr/KyXvZBdA6d+tNBArFWQiWH/neR4OhwN+XwD1dfUQOB7xZByJZByDQwPSoUOHloRGR+/OZnMpVVX319TUTLjB8xZp7e7urt++ffsz69ev/3I4HA5apW5jQM2cPcYAlgJBdRzCH/0KZOVOGD+7CWz7LBBCAVErJDuxYuITGINBFdgFH2YHb0etqw2dyXUI5Y+CMAKOmJ3Famtr4Xa7i4N7Mb0sk4Ev6PReux3HPR5kfQECjwuQTJ1et1dhdftlYkvqnGEjoDYCphNwNorgFB3BKRoEOyVGiZvxTGDJPCubMxaLIR6PQ9U0aKqKqqoq3H7753DTTTfB4/EWLbolWywDUtqWJJlMIhqNgud5SJIEn88Hr9c75rPn8hgPa78lSYLNZgOlFKqqQhRtqK+rR3mwHNOmzcDuPbtwvLsD/UN9CL8Vamw/3P5v1yy77guMsb++7LLL3jnpXHxUCz8wMODesGHD4y+++OJPtm7dekc+n3eM74xrjj4jRLMxKAIwdRTUbhAmA0wGUJMEbtgNUh8G6a9iCAVNbW/p+xKNb/ZDNOAQAqh2zYPHVomsFkFeT4CAwDDMwSvdB03TTmvhre+cTwvPMQYOQNQmYL/Xi+6KSqaVlRN4nQBHWFWXzmatl1F1RCEwQKiNgBrmPnprDNS2afA16CCEgRlkwnSAU1l4i7TJZBIjIyNIpVJQVBVOux0rVizHU08+gYWLLgMKdwrLRWuz2Yqu39KJpWWRNU1DLpcrOgwURSlWoJ3Oqk/099JjKM2a9Xg8RaNJC4mBlhETBAF+nx9Njc0oLytHPp9DIpFAKDyKw0cONbcfbH8wEok2EcIdqK+vS1jb/0iEX7NmzQ2/+c1v/mPdunXPxOPxoNW/cVLwDKSnAuRAA4ikMtQmCQTAyAHQAdY6AlyzG8SlgPTUgaTcBIIBQoqZ3MWJLWOFzgNSHWqc82Dj7Uhro8irSciyWrwti6J4RoQvtWoflfCWfMnyHA673ThUVoFcRSXgcxNIHPOFKGZtVFjTHhV83uAMGyGUETCDwBmkqJmvorxVAy+xCbMZLUxGdktbp9NpDA+bOt1a+2rB/Pl49AuP4vrrr4dkd4JSo1h4bhFeFMVim+7xhLdIb0mdTCaDRDwBWZFht9uLrt3xsuZUpLeOhTGzMVUwGITL5TIpU+i8HAuHYXc4TmpyJYoiysoq0Nw0BW6X2yw+MQx09XZyBw8eWDgyPHJ/MpHMtbW17QTO0S25YcOGWbt37/7mgQMHHkmlUvYJLfopwBk2JnAiyzd3IrNsK5xz88SQQWgeoACYDSD9ZZR7eTkh6y8DUwTCJAWFcmPrdBelDin477NaGJ2p9RjK7oFuaBA4CW63uxiRtW7xpW5JnucRCATgcDgQDodhGAbmz59/zm5JgTGohKDXbkeXzwfVHwCcDkAisKcYa96vs5qjGohKiS6AMGZGSW0uw/SnN2ogHDUTvHBueS+yLCMcDiOdTkNVTXlYX1eN5TcuR9vCRcXVyUVRHPOQJKn4bLkrre4Nk7222hGqqgq3240ZM2eivKwM8UQciqxM6J60oualGt5msxWJbll9yhja9+3Dmy++iJbp03Hj5z4HVriQrG1Y7kxZls3+QoYOSg1s+HAD9h3YC8lmw5VXXI2rrrr6329aueLJs9Lwvb291Zs3b/7Kxo0bvxIOh8tK+yeeKXiOB+MMMhTuRc+2YSb/sgyVq3Ks5sEUxBqd0DTA0gANRjnj6RcoWbYT/K9Wgts/nTDOAAQz1Y8VS9bMdzqV4RACmF92N+pcC3E8uQaR/HEkU3EIvDjhBenz+RAIBCCK4oS++bM6rgLhhkQRxzxepP3+QtouD05lrGG/wZoO6BCTBtFtIIbNzE/nBIbyaRqCU1UIdgOGbk5UJ01nxORpu2N0eoGM1dVVqPAS3H7Xg6iori0SzLqjjX9YZZWlun2iR6lmtxAKhTA6OoqZM2eipaUFqqKe8rvWnKGsrAzBQp2CYRgQbDb0dnXhjZdfxp5t20A1DdPnzAGAYjcJU8+b5y0ajSKdTgGEQZcZJLsdi9oWoeNoO7KCDTlKcfDAwS/duOKaF86I8O+88w7JZrNf2rp167d6e3tnWBrqbGANaCKZQFdPJ6LRCCEcITwR2PCvXCz2oYNV35Nh5avShHdQomUApoNjU7uY/s0fM37L5cz2+nLC9VcTKiognIETxDcntxQGKDUQtE/BFdLjGMruQ2dyHdLaCAQigRBTsrhcLgSDQdjt9uLgn2sAjoNJ9pggoMPlwqg/AHi9gMMGEKCil7KWPQbzjRpE5xnRJZPoAOCr0VE2Q4HDb5jlddrkd8nJ9s+SYYlEApFIBIqiQFEUSJKE++69hz3++JfAMZUMDocRjydMvUWkCcleKhcmIvbpHhzHQZZlbN26FQcOHEBTUxPKy8uL7mLrc5aV9/q8qK6qht1uL+ZJRaNRvPGb3+C9N95g+UyGeNxuEJ4vlija7fZiHtTo6CgGBwehajKoDoR7VIR7Vcxa5gMjQDxYDldNHTwul3kxhkZbTsvaDz74YOXmzZv/Z2dn50qrb/rZyBdCCHhegJzPoae/B4PDAzCoUbxgGCghLkrUFMd6f+hjkfcdrOaBFPMuznEGAWgOhFFGjCU7mDqrnYkfXAdx7VKCtAtUkk19z0rrNRkMpoEAaHBfhkrHTPSkN6M3vRmqkQXPSXC5XGMir+fiySEwXVx5nken04FejxeGz2/mvdgAd5Rh6h5KK7sNwhjjNJGY5XUagSOgo3yGAne1BjACQzsz92LpZ0r96eFwBLlctqidr1x8BR5//HG2aNFloIwRjuPhDVYhHAphaHAQqqqCiSc6G5cSvdQ7cy6eFwBF4qZSKbS1taG83HR10sKEVxAE1NbVIhAIQNfM1QwppXj37bfx3M9/jqH+fng9HuJyucBzHFASlCoYKXbo0CESjoRACEFq1MDQERmxYRV1M+1we3i0JxQ0tUzDVHAYON6JTC4HSbRnJyX8hx9+2Lp3794/2r1792PZbJaf0M14GljrCPUN9KC3rwd5OQeeFyDw436WAeAo4ZyU5LoF2vlXZfAvdtGqe5JEmqISPQ+wLAgTciS3+i2mLNhNHe/cRIQ9bQQGARVV08qzEqkDBo2ZeTgz/Dej1jUfx5NrMZTdh1jCbKTq9XrhdDrPmvCEo9AZRbeqoScPlq+oIqiuBkRAzDHWvA9oOEQh5Cmn28wiDKoR2BwUwakKAs0KiMBOadGByQNHlj89HA4jlUpB03WoioIpzU148MEHccONy5kkSSSbyxXOmWlRPV4vmiUJiUQCjDK4Pe6i16PUwn8UF6OqqmCMobm5GZWVlWYOE2MQeB6U5xHw+1FdU1M0nKJNxPbt2/GTH/4Qu7Ztg7MQGRcE4UQQ0sqaBeB0OrF7924yPDoEKvMYOiIj3KuCcEDTfCca57qgaBRcLI7KaBzdsRi0QjsXjvDkJMIfPXq0etOmTc/u2LHjqUgkUml1+jobcJy5kkQkFkZXTyfiyTh4jocgnPqCYQyAzeAAgvhWiab3V7HgjRkWXJXi+IABPQNABtGCo9Ae+i9ma9vJnO/dQoSeZkIFDYzXCr1XSolPobE8XEIZ2srvR73rMnQkP0A03wklIsPpcMPv950Z6QkFCANJlSGX8KHf0YM8HwE4CiIJqDuqs5Z9YK4YJbrAiC6aepxwDMEWFeXTFNhclk4HzJjEqaOjpe8tjRuLxxCPndDpfp8Pt913D2773O0IBsugaeaVVOoqtKQEYwxOpxO6rsPpdMJutyObzRZdfVYC2Hj/++kelkwJBoNoamqCosg41tGB2bNmF2cjBCi6Gp1OJ7o6O/HDH/4Qr/7614zqOvH7fJCsFuY4cRcrjeiGQiEMDg1Az/HsyIcZomQpKppFNMx1wF/hQCadx949e9HV2QmtUKxTsgi1bQyT33jj9UfXr9/wJ729vdOsATsbEEIg8ALS2RS6eroQCo+CMQbbaYh+Mhg4h0EMgyD0mpsltzto+ao08VydIZAYkAWhBojceoQp9ceZY+fVzLnxBsLHg4SKsrnKheW9KAw0hQHGDJQ7WhGwN2MwsxudyXXI5CJQ1DzskmNy0hMGcAaQd4GFG6CnAnAzDkuz5ehz9JFoVKJTjjKU9TBicIzTJIAZHKgOuCo0VMyS4SzTQI2J5cvp3ltWN5VKIRKJFBu+CjyP66+/DnfedRemNE+BruvIFax6aa1tqUenlMjDw8PgeR5Op7M4WbUK6M9UwxuGAVVVYbfb0draCq/Xiy3bNuHlF16Fz+fD/PnzTQPETK+a5X358Y9/zP7lBz9AKBwmAbebuNxucBaxCSksv2O+BiGgBVnT19cHxgw2dEQmvEAw50YPKuodMAyKI4c6cODAgeJqL6WrrZvzCN003YOD/WTzpq1ff/W1V78ryzI5W6IDpm5TVRXdvV3oH+w7aeHds4UZOWcgDp2ocY4N/dzPnJtdLHhrEo6ZecJUEJoHoUwn6cUbWK51H3NvXs6c+5YQqHZQm0JO0J0VnR4GUwEQNHmXoMo5C12pjehLb0Uml4CNt48jPQN4A9BEINwIxKoByoPwOhjTQUAwJTcFzXsMDsyALgKMElCNg+QxUD4jD2+9as4rxsmXM8174TgO+XwekUgY6bTZ1tvQdcyYPg133HE75s1vA+G4ItHHTz5LJ4zjQ/8AkM/nkU6ni8S3MlEn8qGPJ7rlZWlubkZNTQ06uzrw05/+BL1HY2gKXA6HPwfD0MCYVLzgbKKIwcEB/Pmf/RlhjMHnckGwrLolrcaRHoULXpZl9HZ3we5wkupWwFMmQrTzGB4Yxf4D+zE0NFRM9bbAFZpjGoZBNF0TBQBweISaHTt3/M98Pk/Odo1Ua+mXoeFBdPV2IZvLQOCFj0T2k3+EEvCU5LoFJv+wnLkX5pl/RRJCpQY9B8KyIJojSWIrXmbZGTuZd8vNcHTNYRQGRwWT4Iyg0CnX5L5OZYi8E7ODq1HnWoCOxAcYzR+CYdXCcWZeD4nXAJF6QHWAcUbBO2TpSgYDFCh09qIaAScyVLTKKGtVwEumfDFjZGe3IiDP88W03Xg8DsOgUDUdFWV+3LTiJly1dBkcDkcxymmRfbwMKLXS4618qQ8/l8shnU4jlUqhoqICbrcbrCS6OV6+GIaB8rJyNDQ2IJVO4j9//u/YvHY3qpyzsHjaUui6gYxxZMzdhTFzngVmRlKNwgVTJPt4CYMTGp5wBIah443NH+KqxVehuSaIeCKFnTsPoaurC7quF+9O4yO3uq4TSZJQV9fQLQCArOWchmEIZ1OvaVmRWDyKrp4uxOJR85Z41vLlLCAYhAIktcPOcocl5l2agXtJGpydEj0HMB0kV9lH8qt/wpwdC1lg50pqC9cRg1cIOL3gsz9BfMooKFPgFWuwqPIRjGbbcTj2LihUIOcHN1IHZH1ghAK8UbhXWJ28CncPAlCdgIHBV6+ifKYMya+DTuBmtCzuqWD5wOPxOCKRiDkJJGZp07LFC+jNq+/kgmXloNSUEuOJXuptmcy9OBnxKaWIRqNIJBKor69HU1MTstksRkZGxlh1a4Vwm03Am2+/gZdfeA18vgxtDbfCafciLUdxuG8LyhpEcIQvEr2UjBwxk+PGk7z0ArCedcOArmkQJAlaZRWOdHZhtOM4evv7kcvliukQE901c7k8cbmceOKpx34xd/a8DwQAEHk74ziOld4GJ4Ol0zO5DHr6ujE8MlTMw7hoEA2iK4TE3vGy7D4n81yXYvaZWUIFEOQBSkFSU/cgW3OIeduvYf6D1zM+5+F0kgelxOygW7T4DEahQUuNex4C9mZo2SiQrgExODBeL3iASInr09wNapgPR1BH+aw83NWq2Zj0DN2MpSh1M0YiEeRyOTAQcJwAj6TBjiy7euE0Ul1VjUwmDWFcXvp41+JE7sWJiD7+veVLb29vx8jICObMmQOXy1VMr25qakJFRQV27trO/uPff0aGO7OYVnM1grXVULU8jo/sQFdoF0KxQSyqvMJ0HYyPCgPF3KjJiE6I+T1VllFZW4vpc+chl8liFuMwONCHo9lscc4BnCwJVcVcx+v6G6458tTTj39/yeJr/w2AIgCAjReJ5Y+2fKLjbw3WSWGMoau3E739PWa/doEHh4tXyX9iZxgg6kQJc0R9MUAdrS7mWpoEX6MQpgCQQXSikMj891myYRfz7ruB1iSuIM4AQ6yHg64SwtkKyWnMLDHUqQob74DNaACFDvAUhJmduxhhFs8LNaMENidF2fQ8/M0yCM9O608/lU63VgtMpVKgDAAnwM4ZqHDlEXBoSGYYU1Sd48BBtAmw2hCUriM7nviTRUZPR3zAvNMMDQ1hcHAQNTU1cDocqKmthazk8Zd/9Rdsx8ZDqPfNwxXTWwEwDMeP4/jodoSTfdBUA80NU3H11Veb2t8ivBWVZWxSkhNietdUWYbd58NV11+PeYsXo6u7G7954w1Eo1EAmFC+AIChm3e+2XNmhR/70kM/W7X6pu86hLIh6/8CcHIQe6LbIWCmBQwM9uHoscOwieJ5s+qWL/icUnl5CgZwuQ4bk3sr4JyfpfZFaULcOqF5gKkg1JlF9dUJTNfzECSgbBrHhvfZkBzkibUMTDFiy5jp5bG2T8gYGWRo5h2ibFoeZdNl2JxGoYvXxOkAp8tm1DQN8Xgc8XjczN0hPESOIuiQ4RAMuETKAEIYODNnDowUHa6KAg1szALKpa25x5P5TCy89d7qMyNJEhRFgdPhQCQawZ/9yV9CyFeSy6bcBlGQkMiF0Dm6A4Oxo8jnc/D5Arjx1htx3XXXmb08C2t1FUlf8NIQnCxdOOvIGEPb4sW47pZbkJVlvPLKKzh+/HhRSYwLwLHCxJzIsoLKyjLjwYfvf+Hhhx/6TsBXuW/8mAsnvnjiBFnEG59XAUaRFm3QJQl2wwAtcfucC8yZdx5utweKYrZYPttJcxE2SigFMjuckI/ZmWNhltlmZoghUFKTa0GruoxQhwFDE+As10nLjTpN9Aps9IBIsjGecDwD4WBacmaFrgpjAwZKTYngrVNRNjMHe1A7odNPI18mcjNSauaWRyIRqIoKRriCfFFR6ZBht1FkVIExcAUxZe7JGBACTVGR1uNgHi+8fv+YFuOTuRdPR3Qr16aqqgoATHlFKdLpJDxcPaZOuQIZJYbOoR3oDe1HKhuHTZBwzbLrcNttt6GmpqaY4sAXpNWYMShwzCI4R06sVytns7jq2mtxyz33YP369di9a1dx5Zexh26aIEopkfMyREnEPffdueGJJx7/TmvLjLdOmKixEABAp7J50Y0fUJyoBOJ5Hkw3UOEPomPaDMRGh+FLJsExBnYOzYlk2VwRbsXylbj/3gdYZ9dx8t+//C/09vYW00zPGgSASImeJSSz3suEow4mLIzDqDQQS0WQj+Xg9Xjg8frAc4TzN6nw1Gg0ckxE+IgELccRU9+fyNFhBkANAntQR/nMHNy1ilmMcgr5MtnfS3W61R0AICA8D7dNQ5ldAUcoRIExRnhGCAcQ48SxTXAHIYSAGRTJeByKLKOsogI+v39CMk/0erxvnuM4VFZWwu12o/3QAbz66mu4ddVq+Lzmyn4cz6E3chAdI1sQS4+A6gyzZs3BnXfeiXnz5hUyIw309fehp6cH1y67BozSopyxftMaC8YY5HweZWVlcEoS5l1zDbzl5fjJv/4rYrHYmAlpUWnwPC1wiKMGxVVLl3Q88eQXvr/0qmv/DeBzp6KIAABupy8WDAYjvb29NTbbxDKF4zhA5FAjCLi5qg4HPT70RMOwhUbgzmZBCMDI6YnPGIOsyJg3Zx4eeehRXLbwcuiGTpoam9C2YCFee/1VvP7ma0gkEnA4ThEMOhU4BsYZRAsJRHknwPKz3aBTDOiajnA4glQqjUAgYJYA8oyrnCPD26Cx8CGJxbtthOocCM/AdALBaSA4LQ//lDw4m0V0YDz5TuVXt06urMiIRWOmTqcMhBNg43R4RBXl9jw4nrCcJgCEMVJifwqvGJvIIpk/AI4QKLKMwb4+pFMpBMvLwY1bLXwikltEZ4wVs0eHhgfxwn88h8O7+yEQM2eeABB4G3rCexFLhCArMhrqG/H5z38e1113HQRBgKZpSKfTeO/9d7Dug02YMqUZN1x3/dgJK2NgjIKAIZ/LwVlWhrsefBBXXn01du3ahYHBQRzatg2MMYiiWHpxMGvQVVXlNE3H9OlTo489/oUfr1p107+IgueMelAKAGC3eRN33/P5v45Ew/8yODDst9mEyS0sz8Er2HG1zYapkgMHfAGMhEfhioTglGUwjjOLjieA5QX42jNfZ7fesprYRBvyuRxo4QQ47A488tCjWLb0Gvzq5RexYeMGaJo2ZoGxswJPQTVKtBgHo9G0lFYeytDQEJwuJ4IBM2tSdBmkbnGW+ZoEFjroQD7GE980GWUzchBcBqiGYo76ZJjIsnOcudbTCZ1uAISDwFOUOXLwiBoUnQOIWeJlrcxRoDhhjIIRBo4Qwp/u4i9YzEg4jFg0Cq/fD29hYYnxvvRS0judTpSVlSGfz+E3r7zM1r63mXhIIy6bchtCmZ6iFwsA4skwbKKIu+66G7fffjsCgUCxZnjT5g/x2mtvwMg4Mb9uFURfEoQz82is2gIGQNcNaKqGFStX4vEnnwQD8NZbb+HIkSNj5EuBL8zS6bquc4qioKqqSrnvwbuev//e+//e5y07cIZsMIeo9CSFo8PL3n77nd/fuGHz6lQqzVmFAqUTyjGza2Z25+1TZOxPJZAeHYY3HoOkaRPqe8Mw4HF78LN//38IBoKIxqJF61JqeazKqf0H9uGll1/C/gP7cC7Ja4BZ3VRXW48FcxdC09ST9CoA+HxeBAIB2EQRIAYMFUzJcETyacW+jGOCJ5j8vfXaul2nUilEo1Gz4ggceMLgtKlw2zT4RBk645DXRea06YwAyGuE2AXKOA7IKoSTeB2iAPSNptjKzz1Mll5/BxT55Lt28ZgYAzMM03et6xBsNvgKBS6aphULOCxiBQIBCDYB69evxcsvvQo15sDU2kXwOAPIySkcG9mCOx9ZjjkzZsNgDM8//zzuvvtutLa2QlHMAo8DB/bhpV+9xPo6wqS15krUlbVCUVWo7i4sWNzKXA4PmTFtGnK5HILl5dApxdHDh9HQ2Ij33n8fmzdtgizLJ7kYCSGMEMIKE1LidDlw6623vP/oFx78x6bGujUErrPuJz+mxM/l9PQtmN/24py5Mw+qmtIQGg03mAPDnUT4whvwgoAym4hmyQne48Gw04kcNSDKMjjGTsyGCwciiiJW33obOI5DIBAAgGL5mXWgVqOe6uoaXH3VUtTU1LLBoQESiUTGeCHOBJRSeNxuVFVWw5jE3ZrNZpFKpQEGSKIdHE8Ib6fF8rqz8alb45PL5TA6OopYLAbdoCAcB4dgoM6VhkfUQMFB4CgYCAwmMBtHQcCIRkFEHoyAEco4AqahN5TGzo4ImT77MsyfPfukLseMMRgT5LkwAJqqIpFMIpfLgS/xvgWDQVRXV+NYx1H88z9/n214ey/qXG2kpXYBOI6gP9KOfX3vYzTRhaVXX2NmOVZX46aVKxEMBkEpxcDgAP7zZ/+OF3/5ClxGI1kw5UYE3VVIyREc6F0Hd5BjeVlm//Kj7xNN11HT1IzqigoQQnDkyBH8/Oc/x+FDh8Ykro2HoigcQMjSZUsO/e8//sM/euD+h//I7ys7QiCe0/qvEwl2vWXKtJe++sy0d/Yf2PPoq6++/nsdx45PAYxJZQ7leTgcPBaJNkyRHDjg8aEnFoZtdASebNa81Zb4m7dv30b37t1DvD4fnnj8STTUN5DR0KjpDSixkvl8HgQE1y27DgvmLcC777+Dd957G8lkckyb7NOBWepvEmtsyQ6r/rOiohxutwccRybsRjwZLDdjNBpFMpk03a2cADuvwyfmIHE6HDYdimFjhHAg5pzHnI5SyplKxlTvHKFkJJZBbyiNaIZC1gGeO/l4T0rmKp2ElrxPJZOIx2KorKpG67RWRKJh/NP3v8c2fbAbVa5Z5LKpS0AIEEp24/joDoSSvVAVBbU19XA6naCUgivcZVOpFH79m1/htVffhJPW4MrWu+C2ByBraRwd3oLu0b2IxEfQPPMmItlsSDCGf92xFUdlBZ+bMw9bt29HT08PBEEoFuGc5E83DGiqRqbPmBZ59IsP/GTVzbf9k8BLo2d8MibBaWtaZSU7ZfPmLV996823nx4eHvFYpWEATpI6HMeBMIBqKobyeezPJDEaHoUrEoZTkcEIZ9asMsYEQUAqlUJzUzN77NHHyKpVtwGMkZGRkWK5Xan8MKNqIvoH+vDq669g6/YtMHTjtAso6IaOmqpaLJjbVswLmcxTUfDngjEGj8eDyspK2O32k2RX6b5ZF4xhGEWdrmkaQHjwhMJtk1HpMOcpsi7AYdOhGTxTqQAnL4MSDrIuMonIHM8TqDqPvJxCx1AGAzHVlEEckM1l8bUvP4t7P383srmcef2WEHsM8QvHYRSkjVHIfZFlGc1TpmB4ZBg/+Od/haRVY2pdG+w2J5K5ELpCuzAQO4JcLgOP24dly5bh+uuvh8vlgigIaG5pwd69u9m//8d/IDGsk9mNS1Hhq4duaBhJHsfxkR0IJfohChIWLboMd91xBzYdP8Ze2rqZLCyvgiOTRSQaBQPG+NNLx9UwDMh5GWXlQXrfA3c9f/e9d/5DRaB+1zny+ySccRF3ODK89P331nzrww833Z7JZEipvgcmCBNTBlVR0JnL4kAqjmxoGL5YDDbDgFHynUIhLlu0cBF76omnyeIrlpBEIo7R0dExveHH6HvC4WD7Afzm9d/g2LGjxWr7iVAk/Jw2aLp2Ri66wgQJHMchGAwW150qXfC4VKen02lEIhHzQiVmhp/HJsNry4MQBjuvQ6MEKhXg4DWmUR6KIcDJy4SCg2yI1G1TOVmR0d6fwVAsD1kHBJ4U3TInCH8PMtnMGHJbpGcl5Nd1fQzZDcOArCiYNr2Vvv7Ku6Rze5401ExFXk2jN7If3aG9SGVjEDgbLrvscqxevRoNDQ3mOluaBo/LBV7g8Yff+jZr8LaRpupZIIRDND1oBp6iHdB1HdOnzcCqVaswd+5cZDIZrNu2FYNd3dByOWQLHc6s8SsdS8ooVFmFYBNw4/Lrtn3xi49/Z8b0Wb8+V2JPhjMOlVaU12x68MGHN1+x+Ir73njjjT88sL+9zcpQGw/GGMBzkFxOzJZENNjtaHd5cNQfAUZH4EunQJgZMyxk+pG9+/aSr/+Pr9GbVqxkTzz+JJk5YyYZGh5CNBothrsZY8WKmlmzZmNqy1Rs3LIRb7/7NpLJxKTanhSy7SabZI5/b1ltSilGRkYQi8VQWVmJYDBYJLml06220gAB4WyQeA1+MQe/mIdm8FAYDxCOESvfDDDDuqzQX4VwoKrKHQ/H0TWaQTLPIHAcbJM4ySgbZ9XHuxgphWF1CigQXi/p9KUbBtxOL3O7JNIfPYTjI9sQSQ3B0CimTZuOu+66CwsWLCh2GojHYuAEAT63G4oqo7liPmkuW4hUPoSu8B70hvYjk0uhpqoOt9xyC5YuXQqDUuw/eBAH9u9HNBw2y/vYiXbcJeeFMcaIpulgFJjXNmfgi4994fuLr5n9L06u9oKs43q2uQGsder057/+tanv7t2397G33nz7G52dXU3WpGPsJ82EfyII8Hm9WGK3Y4rdgX0eHwaiIdhDo3DlcmauMyGWluNef/M1tmnzRtx/z/3soQcfJpUVlejp7UEqlTpJ3zMG3LR8JaoqqvBPP/hekYil4AiHdCaNRDIBj9tz0kJmp7oIgBNpur29vYhEIqitrYXdbkckEkEymYRR0Ok8MVAmpeHgVRjMjEkwwo1115seRwJSWFOW0zAcTWJ/XxqJnA6OcLDxpy7knlDCjLPshmFAK7Hspa3tQBk0QyZ7ut9CShlBLp9DVWU17rjjDixfvhyiKBajpGvWvo8P3l+DL33pCdTX1ECjGigz0Dm6Cx0jWxFNjsDt9OJzq+/A6tWr4ff7cfTYMezavRv9vb3FTs5Wfgw7QXrGGCOGYRBVUdHY2JS89+HVL61cdeOPylzNO8+KkWeJc0qGIYSPL2y77HuzZ815Zdv27V9+5513nh4eGvHbbCfPtBkz28xxkoQamw1lDgf6HE7s8wUQCY3AEw3DrmqgBU+Q2+Umsizjhz/5IXv7vbfx5Jeewqqbb0U2m0Vvb29xRQ4AkCQzMHGqwnKO45DNZrBj9zbU1dSjsb4Jok0sypvS/Sx9PV668DyPTCaDY8eOwePxmJNZwkPgAZcgw8kr8IoyFJ0HCM84whgxd4oAjKAQlOMJB8YTxBIZHBiJYjCugjICG39qz5Msy1AUFYYxrhijxMVatOiUjpEzumGYBdS6DsqAvJpGz0g7goFy3HH753HPPfegsrISsixD0zTs2bsLv/71r5GL8qj0zLR2HTxnQ3d4D8LRYQAEVy1einvuvQfTp09HX38/3nzrLRw9ehTZTKaU3GOCR4SAGQYjiqzA6/Pi4Uce/M2qzy/7z7Jq91boSJ4hBc8ZHyn7S5Ls3ddec+0fzJs75+U1a9f+/sYPN92RTqd5q8SsFKzgopScTkyTJNTanTjqdOFgIIjc6DC88QQERkELNYget4cMDQ3h23/6x/S111/lnvmdr2DB/Db09fUVvTSWzqaMTmjdLVgD39vfjVB4BI31zaiqrAbP8dANfUILP9HrYl6RboATbLBzMirsaQAMisGDWkEjZsVEzSZRgGnlbDwPVcvjyEASHSM5aAaBwHOYzKgTECiqAk3XcOXiJaypqYnk8rliBiIt6HatQOgxhNe0ItFLJY1hGJym6bhs0RV45plnMHfuXKiqAsOg6O3rwfPPP4ejB3swteoKXDZnAUYSx0ELy3ZTShFPRNHc1IKHHnoIS5ctQzKVwpq1a7F7927EShaSLj0XhaojBgD5fJ4TeBtWrLxxz0OP3Pu3ddOdbwb4WWbH33NMozobnM8FEbi+vp473njjzT85cODgQl03YKUpTOjNAUBVFdFMBvuzKXTGIhBGR+DNpAGQMfk5uVwOgk1g99/zAPnqM88iEomY7fNyeezYtR2vvv4KhoaHzij/xrKMPq8PjfVN8PsCoAYtEn+ySeyJyCSDx+1E0KHAzilw8ipkaoNqcHDZVGgGD4MCdkGDTnmolIdX1KBoFMeHUugaTSGZpxA4DpNcnwBMb0U2m0VTUzO++sxX6QP3PQjGGOnt6Sah0VDRF1/U7CWkppRCK2mLZ1l5JZ/H9BkzUFFRAZ/PV1wAIhQO4eWXX8QH721AhWMaZjRcAYfoQVZO4ujwJtz1yE2YPWMWDEaxbdt23HbbbZAkCdt27MDmTZsw0N9fdN+W1lNYEVLGGNM0jdN1A7Nnzxx89PEHfnD10sX/KRL/8Dnw7CPhvK8AQplRtmfP7qffevPt3+3r7a/iBR6CIJyonSghv0V8LZ/HYCqFvZkURiIhOMKjcI1LU1BUBUF/GX7x/34JQzdwsP0AXnr5RezYvQME5JRZllaEUbAJ4Dm+4B8n4Dke5WUVqKuph8PuGFPONhnpDUrh9zhR48qCMQYHr0JlItMMEIegQqc8dAo4eB0UAnRGkE7FcKAvhZGEBkJMN+NkYIwhm8vC7XLj/nvvx+889QyaGpuQl81VyXXDQDqVwvDgoJmqYBhgloQpeVgt6Er/ns/nMWvWLCxevBi6bvbXf/e9t/Hccy/ASDsxt/kaBNyVUHUFg/Ej6BjejkQmjD/8/T/CrOnTUV5ViUAgiIPt7VjzwQc4evQoFFkGKcnOtJ6t3Bdd17l8XkZdXU3u/gfu/fktty3/kc9ZdVLa7sXCBVvyJpNNzdm4ceM3N6zf+EA0GnVapWgAxlh7y+LDMJDLZtGZSmF/OoFUaATeWASipoMWkqAA4NprroPP58fb77yJdDp9ygCUeZJzmNY6HatvvY1t2boZ8Xg85HK7MTDQX5XP5WAwCo7jUVNZg6qK6mJP9MlITymD3+tCtTsHUANOQYNimJbcJSjQKA/KOLhFHbG0jPa+OAYieeiUQDjFhBQwdTpjDNdfdwO++syzuGzhZYWIKSt2Byj2Z9R1xKNRjIyMIJvNjkkEMwr/H2P1DQOKpmHO7NlYsmQJdu3eyX76bz8h3YdHMav+atSWt4IxIJLuRcfIdozEumDoFHPnzMX9Dz4I2CW01NVj+7at2LZ1G9Lp9Biv2EQSUFEUuN1u3LJq5dv3P3Dvd2qrG9d9VF59VFzwNZ6GR3tvfe/dtb+/e9fe6xRFGWOJT7L2hIBqGhKpFA6lUziSjEEfHYEvmTB7rHMEsmymIVgNPycCY2ZRst/vx12fvxu3f+7zCPj8iCficLvdP542fdp39u7be+NLL7342JGjR6ZFYxH3yOiImycc6mobEfQHi0GoiSRN0O9GlSsHUAqnoJqEZzzcggoKAXlFw1AogkMDGeRUVgjpTzw+Viwin89j9qzZ+J2nvsxuWrGSCIINjJn1AZTSItmtu5XlhVEKlVLRQps9K4ZQquWNgldK0zQsWrQI3T3d+ME//QiNZW1orVsIUbAjlQujM7QLfeF25PJZ1NXUY+XKlVh69VLEMmn88p23UW5QRMJhU4yXeF6sMbdeq4oKBmDxlZcd/sIXH/z7+XPnPkfgPGXa7sXCRVrFjzkPHT74xbfefOf3Ozu7mqzVJYCTrb1VGKDJMkYTSexLJ9Edj0AcHYEnmym6MU/1Y4wxcu2ya9nDDz5KmhqbkM1li6t42wRbqrau9ntNTU1/D0BrP9S+8vDhQ0uOdx6fsW792sUHDh6otwk21FbXwevxjUmftSx80O9GtSsHxizC28AgwCnk0D2SQntv0nQzchwmyAYoglKKXC6HiopKPPzgw+yeu+4lgUCguJqddVEXSV7SMbf0vdWPJhqJIJFImIQvKeawYBJ+Iftw/VbSs1NFbWUz8moafdGD6BrdjXgqDJ83gOuvux7Lly+H2+NBV1cX9u/fj2gohLwsF3OjxvGGMcagaRpRFAUtLVPiDz/64P9dedPN/5fnbKGz58uFw0VdtjKnJFp3bNvz7No1674UCoU9VmlaidvK3KmCG5BRCjmTRW8ygb3pBEKRENzhEOyKMiHxOY5jhmHQJVdeFf/OX/2tN51Oi2aRxYlyN+sW73Q6u1taWv6ytrb2PwBQWZYbe3q7L9+1e/c1e/bunrd9+7a2aDRWVh4ohyTaC22YTQtfFvSi2pUFKINL1KFTDsOxHHqHR9EXUcFAJsx7KUU+n4MoSlh186145OFHMaW5Bbp+oqe91XqjtL30SVZ+3Gtd15HJZBCLRpEpyJxSuadpGtoWLqB7th8iPTt1ktFH0TGyDaFYH3hexJWLr8Ttt9+O+vp69Pb1Yd++fejp6YE6bmXEAmeKabuUUpLL5UlZWUC//Y7bXrrjzlXfDwT8W3h4Lh65zhCXZGHiaDy8dN2atX+4fceuW7OZHGf57yfS9oQQUF1HOpnC0VQCB5JxZMMj8MaiEA0DlDvhmeE4jvE8rz/6yBfWPvX4U7NUVWvI5rJmgKhg6SxpYun0YDC4eerUqX9eXl7+DgBQSstlWS7v6++d+9wLzz3y0q9evJUwzlYeNLP8dN1AWdCLWnceAgEMLYmDPTF0jmShGmRMOsBEUFUVhmHgisuvwKMPP4ZFCxcVL3iL6NazFVmeiOSl70/6u6Yhk06b/dIL6RmASfiFC9vots27yeu/eY/Ec/1QVAWzZ83BXXfdhYULFyISi2Hnzp04duQIMpnMmFSAEhRSeShkWeHsdgnLrlmy9eGHH/rLKc2NbwB2Fpf7ScDe8LEj/AVdtnIyOB2u/tmz57zYOq35WDabaY2Eo9VWghgwVtszxsDxPBwuJ6qdLtQLEpjDhRGHA3ldh72QhmxZe8MwSE1N7ej8+Qvs//3L/wpWVVWz5sZmaLp5u7WirNb2M5lMw9DQ0MOZTGaGx+M5IklSr81mi5SXV/QtmN92wO8PsN17ds0YHh2yC7wNok2E1+OCg2TR0T+KXR1hDMTUgvdlcrJbXpKmpmZ8+ekv4/HHnkBdbV0xlmCVspU2VSqVLOMXFbA8MROti2qR3Lq4rGOllKKmpgbHOg6TD9a/idraejzyyKN46sknUVVdjV27dmHNmjXo7uyCpmvjjRAr9aerisrphk7aFi7o+sY3nv3jB+5/+H8G/OXtVmjHIfjOP3HOAy6JhS+FTuWqgwfaH1+zZt2zvT19dVbzy0ktPgA5k0V/PIZ9qQT6YmHYQ6NwF9IUwHFMtIlKS0sLOd55XBQEgT10/8O4+657OMluR2h0FLl8DmBjszF1XYckSfGmpqYfNTU1/ViyS/0AHPFYbOZzLzz3zPMvPHdbV3dXldvlQdDvQzoxgkj69G5GoJiTz1bdvJqsumU1ysvKoBt6kdylEsZ6bXllTqXdJ7Lwqqohm80iNDKgE46Hy+0165YLF8aCBQuwadMmhEIhfOELX0B5RQUOHDiAzZs3Y6C/f4wMKnEvWukA0HWDU1UVzc2N8Xvvu/snNyy/9kcO0dd94RhyfnHJCW8hJ2dmbtu67RubN299MByKeAWBn9DiW/qeGgayyRQ64jHsS8URi4TgiYRh11RQwkHRNIiF1d8UVWFzZs3Rn/nyV7XFly92yLJMRkZHoMhKMVBSWrHvdDqHfH7fukwmfTCVTkX6+/pmr1m/9uZ9+/bO1HXdHLOCRT8TKIqCB+9/iN1z572E47li9VYpwUufAYwh++lkTXG9pWwOo8ODrPPQLoXpyZ6Zi260r/1wU9Os6bNIfX098rk8prZOxfRp0+Byu9HX34/169fj8OHD0BSl6E8HxvrSC3MfIssKKSsL6LfcetMrt99x6/cqgg0bzy8LLjwuiaSZCDZBjExpbnl97tzZm0BYVTgUaVVkhXA8dxLhAYBwHOwuJ6rcbjTaJNgkO0adLqQZhSjLkAgBzLsFs4t2gCOJwcHBrmMdx3SP2+ObPWu22YQ0mx3jySCEQFEUTyqVmpfL5pYfP378+vfXvDervf1ANWMQCCHEavh5OhRTjQ0d11x9DamqqiquzmG324sEdzgckCQJDocDAMYQ+lRLuVsXaT4vY2RkGHu2rsfWNb8yopGujOgSlOq6mbY169d79uzbRfLZDAIBs5V1WVkZ3vvgfbz5+hvo7+0FAHAlUWqrtA6A5U/nBEEg199wzdZvfPPrX19+w8q/JKLcZ+Pc5+nsXzx8bAhvweFw9s2aOePlqa0th7K5zNRwOFJNDQqOP9naAwAvCHB7PKhzuVAriNAcTgzb7VB1HZKigIASmBqZaqoqHjl6WPzNK792DA8PY+6cuaSpoalYhFyaRWn9VmVFpTRn9lxXNpcVOjuPkzNNX2CMwe3ywC45oKkqbl11Ky6//Iri/ziOg8fjAcdxxrZt20IffvhhJBgMCmVlZaJl3SdaQc96mBNGGaOhMPbt2IoNrz+PQ/s2QicZwM4EjZPtFRXTXMePd9vy2Qw5Go/hoJxHQBCxc/Nm7N27F7qmgS/Jcj2R4GWS3UwH0MncebN7nv36V/74vvvu+YOgv3IfQNgnkezAx5DwJjjd7wscXNA276WKyrJMLB6fmYgnPabR5k6y9owx2CQJfq8XjXYHym0SUk4XRkURUBXYVJVoqmrLZLMuRVFcjDFu/8F9WLPmfbjcLnn+vAWCx+MhqqqOqbay9KzP5zNLE3dsO223NV3X4bA70DZ/IWqrzZQFGy9CUVQ2c+ZMzJo1ixTWl2JHjhyJvvXWW8fXrVunHDp0yLFr167U6OioXldXZ7fZbFwp6UutuqppiESiOLhvD9a/9hLb+eEbJJOPweYFBCchsFNO4/K2uqq5tvaeIRIO+FE+dToWeAPIjYwikUya86QSCVM6ITUMg5PzMqmvr0t88fEv/OCpp5/8clNDy/sE/Edb+e1jgI8p4U0Qwudrqus2LFgw7w1R4r2RSGxGLpsXxreFLvkCJKcTFV4vmiQ7PDYREZcbMZ6Al2XCaxphACGEMEmUQCk1vF7fh42Nja+5XW5HIBColuwSclkzKOhyuYoVVn39fdi5e8cpCW8YBux2O+743J1oqG8sNvu02+3o7+8n7777LrLZLPH5fPjFL35hvPHGG5nOzk5fIpGo1jTNNTo66tq9e3duzpw5el1dnTOfz4+x6ObqH3EcaT+E9a//Bpve+hULhXqJzc1g8xBwDgLiYNBtjPgCftJQeyU5rAEzyyuxQHJCKtS4jo9QW1adUkoUReF8Pp9xx+c/9+uvf/1rTy2Yv/BnAi+mLsgJvgS4iC1/zx1Oh/vIyhWrHlu0cNHPPvxw4+/v2b3vZlmWJ8yDp4YBjudRVlWFK3w+NEciOOB0o90XNP338ThslAKFlnS5fM6VzeW6NE3dxMCudDgcj7a0tFQlEgnTqmo6+vp7sX3HVvDcqeUMpRQP3vcQ5s9dgKHhIQiCAIfDAYfDAZvNhkwmQ9asWYNt27ZBURSeEFJFKSX5fJ5ms1lqGIZAKQ2qqqpYBLdkVjqTQXdXN3Zt3IB9G9cgHh+F6AGRvAScHSASAxUA0SVgZvOVaK5egkQyj8VOF3hKoRTy/0uzGa2JKWMMsqxwomjD8hU3bL733rv+qrmp/h3AcfYL1X6MYRgG+Vhb+PFwOt3ds2ZOe7GxqaE7n89PjUZjldSgY7rnWmCMgbfZ4PX5UO9yo0awQT2h74moKGCGwQ+NDFeNhkardV0Xq6uq3i0vrzgIhps1TSOxWAyvvfEqfv5f/4mevh5I4uQF42YAZzZ75umvELvDXmxwaln4hoYGVFdXF9sI2u12ks1mMTg4iGQySaxiEUopFixYwDU1NQlmBDOHnt5etmvzZvWDl37B9m1Zw6ksSyQ/Ae8k4B0AkxiIHWhsnI3L59wFr30qhgdHkU6kAMagn8ITp2k60XWdzJs/t/N3vvyl/++ee+7+vYC/8gBgO7dlyD+mCIfD3L59+z4+bsmzhUHV6r179zy7adPWp4eHRis4jozJzxnvxgRjSMcT6AyHsDsZx3AsDGdoFM58HpQQ+Hz+1NSprcdWLF+xrb6u/uGOjuP+51/8BXr6emGXTt/rUlEUfO7W23HTipUIBAJwOp3I5XIIh8NQVRWtra0Ih8Po6+tDR0cH9u/fz3p6eojH40FdXR0IITQcDiObzep33303W7RokchxHDnS3s7at27KxYZ6UtHEkFeD7IQIQiQGiAzUBpRX1WDOtBvhcTQiNBpCOp0yG8KSMb0crdx0AjNtl2iqhvrGuuTtt3/u5ytWrPgHSXT0XujzdrERjUb5o0ePsoGBAXbfffexTyzhLWSyibYtW7f+wY5tu+/JZDKCJXMmClpxHAeq64iFw2gPh7A3lUA6MgpPJAJRVUE5DqIkyQQguXxeovTMuhmbXhceN1xzI2pqalBRUYHa2lpUV1dDFEX09PQgk8lg7ty52L17t/7Tn/6UhUIhYd68eay1tZULhUJgjLFsNksHBwfV66+/nmtsbBQ1XWfrX/wleo8d1NyVTsoEKlBe45nN4HQe8ARcmDXjOtSUz0M8lkY8HgUoikS39q3Un04pJbIsE4/HgxUrb3z1zs/f+f8FA+U7LuApuiSQZVnYu3cv7e/vZ/fee2+R5J8oSTMRRNE+MrWl9dfTpjfvVTWtIRyKNOq6AX4CN6aVpuDx+VDr9aGBtwGiZHZLYxR2VQHTNEGnVLDC/WcCxhjskoSaqlooioJUKoV0Og1ZliGKInK5HLZv3w6O4zA4OBju6OhQLr/88tzv/d7viRUVFbwgCEgkEiCEUMZYOhAIUF3XHTwvsJ6ju0kyG+c5hyFANDhdoBzv5DBj5mIsmvd5CCjH4OAg8tksOI4f027VcjOipAkpY4wsXXrVrq989Zn/sWL5DX/hcHj6z+8ZubQwDIM7ePAgt3nzZnbw4EH25JNPjrHon4hJ6xmAVlc1vHrvPfetnTev/YmNG7f8bm9PX3NRzpTAypgUHQ40T5mCimAQrcMj2OXyoCcegRQahTubAQg3QXPqSVAoZbVcmlarwHQ6jUQiAQDIZDJob29ng4ODHl3X84899lj2qquuCm7atAkNDQ1Ip9Po6OgghBCazqaGFVXW7XZHcNblVyGphEhOT4O3AbUNUzFn5nLYeD+GB81osdnGekzgaHyUlNM0DVOntozeedftP1xy9eU/snGej9zF6+MExhgZHR3lDxw4QLu7u+nTTz89eX/43x6Q9MwZc7/X1FL3m317Dn9j88YtT0ajcddE3ZAppWCEwB0IYI7Xi7pIBIdHPNjt8SESCcMdCcGhKKAcN6Y/5oS/CgJKWTF4ZaX16rperGJSFMVq2OQAIPn9fl93dzdv3UUcDgfJ5XJcIpFwcwKRM/m0crzrmL70qmvEO+//Xew/tA5efzkqK2YhHIogneotLPYsFHT6CaJbdaSUMiLLeRII+PXVq1f98pZbV/yVx1V+5EKN/qVCJpPhDx8+zHp6emhPTw/71re+Namt+sRLmolg4x2J+rqGt2fNnrGO40lFaDQ0Q1G0CZPSLFed2+dDbSCABkGEINjMNAUwiLIMwTBOu+gDRzg4Ha6SyqgT3dLy+by12jVJJBJE13XOMAyukLAGAEilUtiwYQM0TRMSqYQ7nU574pEwv6/9AIlLdrTNXgKm2TA8NGyuaCcIJ/rHj4uQMsaILCscISDX33DNhq8++5Vnrlqy7O8l0Rm5cKN+8aEoCn/48GFuz5497MiRI+yLX/wiW7p06Sm/84mftJ4B+N7+zgc3bdzye8ePdS2gjBa7pU3kzSGEIJdOo3dwEHuiEXQkYyChEXhTKbOkbQLiM2b2xqkMmpPU0uxHSZKg6zpSqRRcLhdCoRBkWUZbWxscDgdaW1sxa9Ys/PznP8f27dvhdDqhKFlouoKM0wW5ohINviAWeLyQeGHMcjY40eaJWedRURSOUoo5c2d33HnX7d9buOCKfwfwiY+QlsIwDK6rq4s/ePCgPjIygmeeeebM1eengPAAAAYjeLD9wDObNm752shwqMqclPIneXMAs9EnGEM8EkHH0BB2xWMYikfMbmn53MTVVoSDx+mHJI3NfiwlvNPpRCqVQiKRwLRp01BZWQlKKfr7+9HX1wdJkkAYkKQK4kE/KiprscDjRaVNAiUYszBY6WS0UMfKqaqGpqb6yOrP3frT6667/rsCJ36syus+KhhjJJlM8u3t7ezIkSPsiSeeOOtYwaeG8BbySnrm7t17vrl9265HU4mUXbAJJwWuSt2YhqYhNDKCgyPD2JeMI15MQ9ZO0vc8J8Bus0OSTmRCiqIIXdeRTqfhdDohyzIymYwVfCp2+xJFEWAM1DCQr69FS3UNWkQJHM/DGFcoXUr4QjoACQQD2sqVK5675ZZb/sbt8h66FGN7IZHP5/mOjg7W19eHvr4+9pWvfOWciPupI7yFaGx0xfYdO37v4P5DN+fzCmw2YcL8e6sgRc5mMTA4iD2hURxKxaGFRuFNxCBQWiwztJZCs/Ei7KIDoigWmx2lUik4HI5iBwJCSLENOCFmH3pBEFBRVYXG+no4RBEUJ6w6cPKqI6qqQpIkLF121ZrVt63++/raxrcu/kheWGiaxvX09JCuri42MDDAnnjiiY9E2E8t4QsQe/s7H9y8eevv93T2zaaMFWXOhIErQpBKJNDV349d0Qi6ElHw4VF40ukx+p6BgQMHUZBgl8yF2fL5fPHisSbKgOktAiEIBoOor6+Hz+stXgzAxP1ezLbdwNx5c47cfvut/zRv7sKfAcifdHSfYDBzrQDuyJEjrK+vjz322GPnhaifdsIDAHSq1BxsP/Dstq07vxwZjQZ5gZ80TUEQBFDDQCwcxuGBfuyMRTESj8AZDsGVz4/plsbAwBMeoiABjAPATloW3u3xoL6+HhXl5RB4foxOB05eLEDTdNTV1yRW37bqx9dee/13Bc72W+VPB0BCoRDf0dFBBwcH2X333XdeCfoZ4UuQzsYv37Vr17f27j5wTy6X56zF1SbqnSNKEqimYXBgALv7erEnEUM6GoY3Ghm3qBsDwMHG2SCAAylcEJLdjpraGtRW1xSXfbFcmcDYlADDMDhFUeH1euiKm258fsWKFf8Q8Jedt1UxPi5Ip9O2jRs36qFQCOfLoo/HZ4Q/GdzwaN9dW7fu+NbxY12LDcOY0I0pCEJRo+dSKXR0dmLLQD8OJWIwoiH4EgnTf0/MBY4NEGS9fgR4EY0+P+oaGuBxm1VDpdp83PmgqqpyHM/jissXbVl9263/MKW59VcXeTwuODRN4/fv349Dhw7RRx999IIS8jPCTwrDe+z4kSe3bt3xjZGhUAOAMfn31jI7lutR4HlEQyHsPXwYm4cH0R2PgqQSEDQdBs/D8HpRV1aBRb4gKlwuMEJM+TKBVieEUE3TOMOgmNo6pX/1bav++YrLlvwQQPbSjMWFAWOMDA4OcgcPHmTHjh1jX//61y84GT8j/GmgaLmWg+0Hvr57x97HY7FksZtCKeGt1w6HA6AMfd3d2NlxDIfiUaQ0DU6eR4vHi+ll5bBJEjLZbHF1jPFa3eqMVlFZnl216uZ/u3rZlf/XZQ90XMoxuBDI5XLckSNHyLFjx+gDDzxw0Uj4GeHPEKl0bMnuPbt/v/3Akduz2Txvt0vFaOp48jscDjDDQD6bQzqThqoo0AwDmVyumElp9bq0tDqllCiyAo/Xza65dtmvV6xY/t3ysqqNoXw7X+mYc05rkn4coes6OX78OOnr62NdXV348pe/fFEJ+Bnhzw7ccKjvrh3bdv1BT3f/5YRwcDjsE1p763U+n0cqlUIymUQymUQmk0E6nYamaUWiq6oGSbJhQdv87besuuXvW5pbX7zUB3q+wRgjvb293NGjR+nQ0BAef/zxS0K8zwh/DmDQ/ce7jj61d/fBr0XC8QZz8iqOIbzl4cnlckin00in00ilUmMIb3UlnjattfvW1av+cf68BT8DSPpSH9/5hqIopLu7m9u7dy974IEHLmnp4G9ZevDFAYGQmNYy5+8aG5p+fejwod87drjz0XxOdU5UMDLeoHAcxxhjRFVU1NbVJFfefNO/XrXkyh+IovO3rrzOwv79+4W9e/eyWCx2yetkPyP8R4Bkcx9fOH/xl6dMaX6+vb39fw30jq4wq63GDmupj11RVGKmAyx5a8XK6/6msqxxwyXa/YuGoaEh7r//+7/VdevWXXI58RnhzwP8nsq1S5cEtgxN6Xvk2NHub8aj6VmGTgGBgFEGw6BQVQ2UUsyY1XpkxY3L/2LKlNYXAPxWtcGYDMlkEh8HsgOfEf48wibXVk39aWVlzetDQ4OPhUOx1dlsdiojqpsTPfmm5rq9TU3Nb7RMbXpR4Bwjl3pvLybGtzC8lPiM8OcZAnGONNZN+05DnfIPmmFUGbrh5HlOhmAMivB+fM78RcTHifD/P3yLDym6FUgsAAAAAElFTkSuQmCC;" parent="1" vertex="1">
          <mxGeometry x="40" y="40" width="50" height="30" as="geometry" />
        </mxCell>
        <mxCell id="c1IH__bVCFyz_OlSx8WP-68" style="edgeStyle=orthogonalEdgeStyle;rounded=0;orthogonalLoop=1;jettySize=auto;html=1;entryX=0;entryY=0.5;entryDx=0;entryDy=0;entryPerimeter=0;" parent="1" source="c1IH__bVCFyz_OlSx8WP-63" target="c1IH__bVCFyz_OlSx8WP-42" edge="1">
          <mxGeometry relative="1" as="geometry" />
        </mxCell>
        <mxCell id="c1IH__bVCFyz_OlSx8WP-69" style="edgeStyle=orthogonalEdgeStyle;rounded=0;orthogonalLoop=1;jettySize=auto;html=1;" parent="1" source="c1IH__bVCFyz_OlSx8WP-63" target="c1IH__bVCFyz_OlSx8WP-64" edge="1">
          <mxGeometry relative="1" as="geometry" />
        </mxCell>
        <mxCell id="c1IH__bVCFyz_OlSx8WP-70" value="Destination" style="shadow=0;dashed=0;html=1;strokeColor=none;fillColor=#4495D1;labelPosition=center;verticalLabelPosition=bottom;verticalAlign=top;align=center;outlineConnect=0;shape=mxgraph.veeam.2d.file_system_browser;" parent="1" vertex="1">
          <mxGeometry x="120" y="332.6" width="44.8" height="44.8" as="geometry" />
        </mxCell>
      </root>
    </mxGraphModel>
  </diagram>
</mxfile>
